<?xml version="1.0" encoding="UTF-8"?>
<!DOCTYPE svg PUBLIC "-//W3C//DTD SVG 1.1//EN" "http://www.w3.org/Graphics/SVG/1.1/DTD/svg11.dtd">
<svg xmlns="http://www.w3.org/2000/svg" version="1.1" width="256px" height="256px" style="shape-rendering:geometricPrecision; text-rendering:geometricPrecision; image-rendering:optimizeQuality; fill-rule:evenodd; clip-rule:evenodd" xmlns:xlink="http://www.w3.org/1999/xlink">
<g><path style="opacity:0.004" fill="#000000" d="M 177.5,40.5 C 179.288,40.2148 180.955,40.5481 182.5,41.5C 181.667,41.8333 180.833,42.1667 180,42.5C 178.624,42.3158 177.791,41.6491 177.5,40.5 Z"/></g>
<g><path style="opacity:0.004" fill="#000000" d="M 140.5,43.5 C 139.833,42.1667 139.833,42.1667 140.5,43.5 Z"/></g>
<g><path style="opacity:0.004" fill="#160e0a" d="M 147.5,44.5 C 146.432,45.4345 145.099,45.7678 143.5,45.5C 142.791,44.596 141.791,44.2627 140.5,44.5C 140.5,44.1667 140.5,43.8333 140.5,43.5C 143.021,42.2496 145.354,42.5829 147.5,44.5 Z"/></g>
<g><path style="opacity:0.004" fill="#000000" d="M 137.5,45.5 C 136.081,46.4511 134.415,46.7845 132.5,46.5C 134.019,45.6217 134.853,44.6217 135,43.5C 136.301,43.6387 137.134,44.3054 137.5,45.5 Z"/></g>
<g><path style="opacity:0.004" fill="#000000" d="M 204.5,43.5 C 206.225,43.8425 206.725,44.8425 206,46.5C 204.933,45.8095 203.766,45.3095 202.5,45C 203.416,44.7216 204.082,44.2216 204.5,43.5 Z"/></g>
<g><path style="opacity:0.004" fill="#000000" d="M 127.5,45.5 C 127.897,44.475 128.563,44.3083 129.5,45C 128.906,45.4643 128.239,45.631 127.5,45.5 Z"/></g>
<g><path style="opacity:0.671" fill="#a32e34" d="M 199.5,46.5 C 198.85,46.8039 198.183,47.1373 197.5,47.5C 183.664,46.0988 169.831,45.0988 156,44.5C 149.145,46.3185 142.145,47.6519 135,48.5C 133.624,48.3158 132.791,47.6491 132.5,46.5C 134.415,46.7845 136.081,46.4511 137.5,45.5C 138.391,44.8902 139.391,44.5569 140.5,44.5C 141.209,45.404 142.209,45.7373 143.5,45.5C 145.099,45.7678 146.432,45.4345 147.5,44.5C 149.527,44.6621 151.527,44.4955 153.5,44C 153.043,43.586 152.709,43.086 152.5,42.5C 154.523,41.145 156.523,40.8117 158.5,41.5C 157.624,42.2508 156.624,42.7508 155.5,43C 164.167,43.3333 172.833,43.6667 181.5,44C 187.734,44.1783 193.734,45.0117 199.5,46.5 Z"/></g>
<g><path style="opacity:0.004" fill="#000000" d="M 255.5,72.5 C 255.5,77.5 255.5,82.5 255.5,87.5C 254.566,88.5676 254.232,89.901 254.5,91.5C 253.566,90.4324 253.232,89.099 253.5,87.5C 253.5,86.8333 253.167,86.5 252.5,86.5C 249.735,80.2257 246.402,74.2257 242.5,68.5C 242.5,67.8333 242.167,67.5 241.5,67.5C 241.5,66.8333 241.167,66.5 240.5,66.5C 240.5,65.8333 240.167,65.5 239.5,65.5C 239.5,64.8333 239.167,64.5 238.5,64.5C 238.5,63.8333 238.167,63.5 237.5,63.5C 237.5,62.8333 237.167,62.5 236.5,62.5C 236.5,61.8333 236.167,61.5 235.5,61.5C 234.833,60.8333 234.167,60.1667 233.5,59.5C 233.5,58.8333 233.167,58.5 232.5,58.5C 231.994,56.8946 231.327,56.5613 230.5,57.5C 230.167,57.5 229.833,57.5 229.5,57.5C 225.701,52.0876 220.368,49.0876 213.5,48.5C 211.594,47.5176 209.594,46.5176 207.5,45.5C 209.765,44.3526 212.098,44.1859 214.5,45C 226.107,48.1069 236.44,53.6069 245.5,61.5C 248.138,65.8043 251.471,69.4709 255.5,72.5 Z"/></g>
<g><path style="opacity:0.004" fill="#000000" d="M 124.5,48.5 C 123.833,48.5 123.167,48.5 122.5,48.5C 122.5,48.8333 122.5,49.1667 122.5,49.5C 121.209,49.2627 120.209,49.596 119.5,50.5C 119.5,51.1667 119.167,51.5 118.5,51.5C 118.121,50.1938 117.788,48.8605 117.5,47.5C 120.167,46.1667 122.833,46.1667 125.5,47.5C 125.376,48.1067 125.043,48.44 124.5,48.5 Z"/></g>
<g><path style="opacity:0.004" fill="#000000" d="M 114.5,47.5 C 115.833,48.1667 115.833,48.1667 114.5,47.5 Z"/></g>
<g><path style="opacity:1" fill="#ed3437" d="M 247.5,124.5 C 245.528,131.168 242.195,137.168 237.5,142.5C 237.709,143.086 238.043,143.586 238.5,144C 236.881,144.236 235.881,145.069 235.5,146.5C 233.236,148.097 231.236,150.097 229.5,152.5C 227.892,153.318 226.225,153.985 224.5,154.5C 223.881,157.032 222.881,159.365 221.5,161.5C 219.794,161.899 218.294,161.899 217,161.5C 217.782,159.154 218.615,156.654 219.5,154C 222.886,149.534 225.719,144.701 228,139.5C 228.309,138.234 228.809,137.067 229.5,136C 229.272,135.601 228.938,135.435 228.5,135.5C 228.5,135.167 228.5,134.833 228.5,134.5C 230.335,133.878 231.502,132.544 232,130.5C 233.642,125.934 234.975,121.268 236,116.5C 236.557,107.021 236.224,97.6875 235,88.5C 231.017,82.4042 227.85,75.9042 225.5,69C 220.481,68.5892 215.481,68.0892 210.5,67.5C 209.833,67.5 209.5,67.1667 209.5,66.5C 201.036,61.2186 192.202,56.5519 183,52.5C 180.757,53.1371 178.424,53.4704 176,53.5C 165.448,53.0775 154.948,52.2442 144.5,51C 168.621,45.8727 192.287,47.5394 215.5,56C 230.361,63.5278 241.528,74.6944 249,89.5C 249.925,93.4447 250.425,97.4447 250.5,101.5C 249.176,109.112 248.176,116.778 247.5,124.5 Z"/></g>
<g><path style="opacity:0.004" fill="#000000" d="M 111.5,50.5 C 110.833,49.1667 110.833,49.1667 111.5,50.5 Z"/></g>
<g><path style="opacity:0.004" fill="#000000" d="M 115.5,51.5 C 113.901,51.7678 112.568,51.4345 111.5,50.5C 113.456,48.8249 114.789,49.1582 115.5,51.5 Z"/></g>
<g><path style="opacity:1" fill="#dc373c" d="M 199.5,46.5 C 203.388,46.3452 206.888,47.3452 210,49.5C 211.011,48.6634 212.178,48.33 213.5,48.5C 213.082,49.2216 212.416,49.7216 211.5,50C 217.732,52.0195 223.732,54.5195 229.5,57.5C 229.833,57.5 230.167,57.5 230.5,57.5C 230.842,58.3382 231.508,58.6716 232.5,58.5C 233.167,58.5 233.5,58.8333 233.5,59.5C 234.167,60.1667 234.833,60.8333 235.5,61.5C 236.167,61.5 236.5,61.8333 236.5,62.5C 237.167,62.5 237.5,62.8333 237.5,63.5C 238.167,63.5 238.5,63.8333 238.5,64.5C 239.167,64.5 239.5,64.8333 239.5,65.5C 240.167,65.5 240.5,65.8333 240.5,66.5C 241.167,66.5 241.5,66.8333 241.5,67.5C 242.167,67.5 242.5,67.8333 242.5,68.5C 246.402,74.2257 249.735,80.2257 252.5,86.5C 253.167,86.5 253.5,86.8333 253.5,87.5C 253.232,89.099 253.566,90.4324 254.5,91.5C 254.232,93.099 254.566,94.4324 255.5,95.5C 255.5,100.167 255.5,104.833 255.5,109.5C 253.833,115.191 251.833,120.858 249.5,126.5C 248.167,126.5 247.5,125.833 247.5,124.5C 248.176,116.778 249.176,109.112 250.5,101.5C 250.425,97.4447 249.925,93.4447 249,89.5C 241.528,74.6944 230.361,63.5278 215.5,56C 192.287,47.5394 168.621,45.8727 144.5,51C 154.948,52.2442 165.448,53.0775 176,53.5C 178.424,53.4704 180.757,53.1371 183,52.5C 192.202,56.5519 201.036,61.2186 209.5,66.5C 208.5,66.5 207.5,66.5 206.5,66.5C 205.833,66.1667 205.167,65.8333 204.5,65.5C 204.158,64.6618 203.492,64.3284 202.5,64.5C 202.158,63.6618 201.492,63.3284 200.5,63.5C 199.791,62.596 198.791,62.2627 197.5,62.5C 197.158,61.6618 196.492,61.3284 195.5,61.5C 192.426,59.698 189.092,58.698 185.5,58.5C 185.179,56.9519 184.179,56.2852 182.5,56.5C 181.167,56.1667 179.833,55.8333 178.5,55.5C 167.509,54.9338 156.509,54.6005 145.5,54.5C 138.5,54.5 131.5,54.5 124.5,54.5C 124.33,53.1779 124.663,52.0113 125.5,51C 128.167,50.6667 130.833,50.3333 133.5,50C 130.81,49.6655 130.143,48.4988 131.5,46.5C 131.833,46.5 132.167,46.5 132.5,46.5C 132.791,47.6491 133.624,48.3158 135,48.5C 142.145,47.6519 149.145,46.3185 156,44.5C 169.831,45.0988 183.664,46.0988 197.5,47.5C 198.183,47.1373 198.85,46.8039 199.5,46.5 Z"/></g>
<g><path style="opacity:0.004" fill="#000000" d="M 107.5,52.5 C 107.897,51.475 108.563,51.3083 109.5,52C 108.906,52.4643 108.239,52.631 107.5,52.5 Z"/></g>
<g><path style="opacity:0.978" fill="#cd3b3e" d="M 131.5,46.5 C 130.143,48.4988 130.81,49.6655 133.5,50C 130.833,50.3333 128.167,50.6667 125.5,51C 124.663,52.0113 124.33,53.1779 124.5,54.5C 131.5,54.5 138.5,54.5 145.5,54.5C 141.979,55.1663 138.313,55.8329 134.5,56.5C 133.307,58.3837 131.641,58.8837 129.5,58C 130.167,57.6667 130.833,57.3333 131.5,57C 129.5,56.3333 127.5,56.3333 125.5,57C 126.056,57.3826 126.389,57.8826 126.5,58.5C 124.833,58.5 123.167,58.5 121.5,58.5C 121.167,58.5 120.833,58.5 120.5,58.5C 117.99,58.9267 115.657,59.5933 113.5,60.5C 112.5,60.5 111.5,60.5 110.5,60.5C 109.833,60.8333 109.167,61.1667 108.5,61.5C 99.6906,62.9932 91.3572,65.6599 83.5,69.5C 82.5266,69.0133 81.5266,68.5133 80.5,68C 82.0414,66.6288 83.3747,65.1288 84.5,63.5C 86.9422,61.7742 89.6089,60.2742 92.5,59C 100.249,56.3605 107.916,53.8605 115.5,51.5C 116.5,51.5 117.5,51.5 118.5,51.5C 119.167,51.5 119.5,51.1667 119.5,50.5C 120.791,50.7373 121.791,50.404 122.5,49.5C 122.5,49.1667 122.5,48.8333 122.5,48.5C 123.167,48.5 123.833,48.5 124.5,48.5C 124.56,49.0431 124.893,49.3764 125.5,49.5C 127.071,47.585 129.071,46.585 131.5,46.5 Z"/></g>
<g><path style="opacity:0.005" fill="#040000" d="M 178.5,55.5 C 179.833,55.8333 181.167,56.1667 182.5,56.5C 182.209,57.6491 181.376,58.3158 180,58.5C 179.167,58.3333 178.333,58.1667 177.5,58C 178.252,57.3292 178.586,56.4959 178.5,55.5 Z"/></g>
<g><path style="opacity:0.004" fill="#000000" d="M 120.5,58.5 C 120.833,59.8333 121.167,59.8333 121.5,58.5C 123.167,58.5 124.833,58.5 126.5,58.5C 126.5,59.1667 126.5,59.8333 126.5,60.5C 122.646,59.87 118.979,60.5366 115.5,62.5C 114.5,62.5 113.5,62.5 112.5,62.5C 111.833,62.5 111.5,62.8333 111.5,63.5C 110.127,63.6567 108.793,63.49 107.5,63C 108.056,62.6174 108.389,62.1174 108.5,61.5C 109.167,61.1667 109.833,60.8333 110.5,60.5C 111.5,61.8333 112.5,61.8333 113.5,60.5C 115.657,59.5933 117.99,58.9267 120.5,58.5 Z"/></g>
<g><path style="opacity:0.004" fill="#000000" d="M 147.5,59.5 C 152.68,58.1853 158.014,58.1853 163.5,59.5C 158.599,59.8821 153.265,59.8821 147.5,59.5 Z"/></g>
<g><path style="opacity:0.004" fill="#000000" d="M 170.5,58.5 C 171.773,59.0768 171.773,59.7435 170.5,60.5C 169.537,60.0302 169.537,59.3635 170.5,58.5 Z"/></g>
<g><path style="opacity:0.004" fill="#000000" d="M 185.5,58.5 C 189.092,58.698 192.426,59.698 195.5,61.5C 195.842,62.3382 196.508,62.6716 197.5,62.5C 198.209,63.404 199.209,63.7373 200.5,63.5C 200.842,64.3382 201.508,64.6716 202.5,64.5C 202.842,65.3382 203.508,65.6716 204.5,65.5C 204.167,66.1667 203.833,66.8333 203.5,67.5C 202.209,67.2627 201.209,67.596 200.5,68.5C 200.167,68.5 199.833,68.5 199.5,68.5C 198.833,68.5 198.5,68.8333 198.5,69.5C 195.515,70.3257 192.849,71.659 190.5,73.5C 189.833,73.5 189.5,73.8333 189.5,74.5C 188.508,74.3284 187.842,74.6618 187.5,75.5C 186.833,75.5 186.5,75.8333 186.5,76.5C 186.5,77.1667 186.167,77.5 185.5,77.5C 185.167,76.1667 184.833,76.1667 184.5,77.5C 184.167,77.5 183.833,77.5 183.5,77.5C 182.833,77.5 182.5,77.8333 182.5,78.5C 182.167,78.5 181.833,78.5 181.5,78.5C 180.833,78.5 180.5,78.8333 180.5,79.5C 179.508,79.3284 178.842,79.6618 178.5,80.5C 177.833,80.5 177.5,80.8333 177.5,81.5C 177.167,81.5 176.833,81.5 176.5,81.5C 175.833,81.5 175.5,81.8333 175.5,82.5C 174.29,82.9321 173.29,83.5987 172.5,84.5C 170.847,84.6596 169.514,85.3263 168.5,86.5C 168.5,86.8333 168.5,87.1667 168.5,87.5C 168.167,87.5 167.833,87.5 167.5,87.5C 166.833,87.5 166.5,87.8333 166.5,88.5C 165.508,88.3284 164.842,88.6618 164.5,89.5C 163.833,89.5 163.5,89.8333 163.5,90.5C 162.508,90.3284 161.842,90.6618 161.5,91.5C 160.833,91.5 160.5,91.8333 160.5,92.5C 160.167,92.5 159.833,92.5 159.5,92.5C 158.833,92.5 158.5,92.8333 158.5,93.5C 157.833,93.5 157.5,93.8333 157.5,94.5C 155.035,95.2317 153.035,96.565 151.5,98.5C 150.833,98.5 150.5,98.8333 150.5,99.5C 149.508,99.3284 148.842,99.6618 148.5,100.5C 147.833,100.5 147.5,100.833 147.5,101.5C 147.5,102.167 147.167,102.5 146.5,102.5C 146.167,101.167 145.833,101.167 145.5,102.5C 144.508,102.328 143.842,102.662 143.5,103.5C 142.833,103.5 142.5,103.833 142.5,104.5C 142.5,105.167 142.167,105.5 141.5,105.5C 141.167,104.167 140.833,104.167 140.5,105.5C 139.833,105.5 139.5,105.833 139.5,106.5C 136.91,107.749 134.576,109.416 132.5,111.5C 132.167,111.5 131.833,111.5 131.5,111.5C 130.833,111.5 130.5,111.833 130.5,112.5C 130.167,112.5 129.833,112.5 129.5,112.5C 128.194,109.861 126.194,107.861 123.5,106.5C 123.158,105.662 122.492,105.328 121.5,105.5C 120.833,105.5 120.167,105.5 119.5,105.5C 118.209,105.263 117.209,105.596 116.5,106.5C 114.695,107.237 113.029,108.237 111.5,109.5C 109.604,110.466 107.604,110.799 105.5,110.5C 103.833,110.5 102.167,110.5 100.5,110.5C 94.8884,109.756 89.2217,108.756 83.5,107.5C 81.5,106.167 79.5,106.167 77.5,107.5C 76.8333,107.167 76.1667,106.833 75.5,106.5C 73.8333,105.167 72.1667,105.167 70.5,106.5C 69.8333,106.5 69.5,106.167 69.5,105.5C 67.8333,104.167 66.1667,104.167 64.5,105.5C 63.8333,105.5 63.5,105.167 63.5,104.5C 62.0813,103.549 60.4147,103.216 58.5,103.5C 57.3915,102.71 56.0581,102.21 54.5,102C 53.1667,101.333 53.1667,100.667 54.5,100C 59.3341,99.1665 64.1674,98.3332 69,97.5C 70.4357,97.5589 71.769,97.8922 73,98.5C 80.4506,92.3279 88.1173,91.9945 96,97.5C 106.165,96.6649 116.165,96.6649 126,97.5C 139.816,91.9869 151.649,83.8203 161.5,73C 167.61,69.0867 173.944,65.7534 180.5,63C 177.81,62.2291 175.144,61.3958 172.5,60.5C 176.982,59.8331 181.316,59.1664 185.5,58.5 Z"/></g>
<g><path style="opacity:0.004" fill="#000000" d="M 84.5,60.5 C 85.8333,61.1667 85.8333,61.1667 84.5,60.5 Z"/></g>
<g><path style="opacity:0.004" fill="#000000" d="M 79.5,64.5 C 78.5084,64.3284 77.8417,64.6618 77.5,65.5C 76.5084,65.3284 75.8417,65.6618 75.5,66.5C 74.2267,65.9232 74.2267,65.2565 75.5,64.5C 76.9948,63.2947 78.3281,63.2947 79.5,64.5 Z"/></g>
<g><path style="opacity:0.051" fill="#777e83" d="M 126.5,60.5 C 125.606,63.545 123.606,65.2116 120.5,65.5C 120.167,65.5 119.833,65.5 119.5,65.5C 117.901,65.2322 116.568,65.5655 115.5,66.5C 114.5,66.5 113.5,66.5 112.5,66.5C 112.672,65.5084 112.338,64.8417 111.5,64.5C 111.5,64.1667 111.5,63.8333 111.5,63.5C 111.5,62.8333 111.833,62.5 112.5,62.5C 113.5,63.8333 114.5,63.8333 115.5,62.5C 118.979,60.5366 122.646,59.87 126.5,60.5 Z"/></g>
<g><path style="opacity:0.004" fill="#000000" d="M 119.5,65.5 C 119.833,65.5 120.167,65.5 120.5,65.5C 119.064,67.083 117.398,68.583 115.5,70C 114.251,70.7401 113.251,70.5735 112.5,69.5C 113.833,69.1667 113.833,68.8333 112.5,68.5C 112.5,68.1667 112.5,67.8333 112.5,67.5C 113.791,67.7373 114.791,67.404 115.5,66.5C 117.099,66.7678 118.432,66.4345 119.5,65.5 Z"/></g>
<g><path style="opacity:0.004" fill="#020302" d="M 71.5,68.5 C 70.5084,68.3284 69.8417,68.6618 69.5,69.5C 66.7972,71.1807 64.1305,72.8474 61.5,74.5C 60.8333,74.5 60.5,74.8333 60.5,75.5C 60.5,76.1667 60.1667,76.5 59.5,76.5C 59.1667,75.1667 58.8333,75.1667 58.5,76.5C 57.5084,76.3284 56.8417,76.6618 56.5,77.5C 55.8333,77.5 55.5,77.8333 55.5,78.5C 55.1667,78.5 54.8333,78.5 54.5,78.5C 53.8333,78.5 53.5,78.8333 53.5,79.5C 53.1667,79.5 52.8333,79.5 52.5,79.5C 51.8333,79.5 51.5,79.8333 51.5,80.5C 50.8333,80.5 50.5,80.8333 50.5,81.5C 47.5268,82.8103 45.1935,84.8103 43.5,87.5C 43.4914,85.6916 43.9914,84.0249 45,82.5C 52.7238,77.4045 60.5571,72.5711 68.5,68C 69.7494,67.2599 70.7494,67.4265 71.5,68.5 Z"/></g>
<g><path style="opacity:0.801" fill="#43446b" d="M 111.5,64.5 C 112.338,64.8417 112.672,65.5084 112.5,66.5C 112.5,66.8333 112.5,67.1667 112.5,67.5C 108.5,67.8333 108.5,68.1667 112.5,68.5C 112.5,68.8333 112.5,69.1667 112.5,69.5C 110.632,70.7569 108.965,70.4236 107.5,68.5C 106.304,68.8457 106.304,69.3457 107.5,70C 102.022,71.5327 96.6886,73.366 91.5,75.5C 89.918,73.6264 87.918,72.2931 85.5,71.5C 93.9303,68.3577 102.597,66.0244 111.5,64.5 Z"/></g>
<g><path style="opacity:1" fill="#3e3f95" d="M 206.5,66.5 C 207.5,66.5 208.5,66.5 209.5,66.5C 209.5,67.1667 209.833,67.5 210.5,67.5C 214.982,68.9974 219.649,70.3307 224.5,71.5C 225.509,74.4726 225.509,77.4726 224.5,80.5C 223.833,80.5 223.5,80.8333 223.5,81.5C 223.5,81.8333 223.5,82.1667 223.5,82.5C 222.167,82.8333 222.167,83.1667 223.5,83.5C 223.5,83.8333 223.5,84.1667 223.5,84.5C 221.302,84.4088 220.969,85.0755 222.5,86.5C 221.508,86.3284 220.842,86.6618 220.5,87.5C 219.833,87.5 219.5,87.8333 219.5,88.5C 218.833,88.5 218.5,88.8333 218.5,89.5C 217.662,89.8417 217.328,90.5084 217.5,91.5C 216.833,91.5 216.5,91.8333 216.5,92.5C 215.833,92.5 215.5,92.8333 215.5,93.5C 214.833,93.5 214.5,93.8333 214.5,94.5C 213.243,97.4274 211.243,99.7607 208.5,101.5C 207.833,101.5 207.5,101.833 207.5,102.5C 206.833,102.5 206.5,102.833 206.5,103.5C 205.833,103.5 205.5,103.833 205.5,104.5C 204.833,104.5 204.5,104.833 204.5,105.5C 203.833,106.167 203.167,106.833 202.5,107.5C 202.167,106.167 201.833,106.167 201.5,107.5C 200.167,108.167 199.167,109.167 198.5,110.5C 197.833,110.5 197.5,110.833 197.5,111.5C 197.167,111.5 196.833,111.5 196.5,111.5C 195.833,111.5 195.5,111.833 195.5,112.5C 194.833,112.5 194.5,112.833 194.5,113.5C 193.508,113.328 192.842,113.662 192.5,114.5C 191.833,114.5 191.5,114.833 191.5,115.5C 190.508,115.328 189.842,115.662 189.5,116.5C 188.833,116.5 188.5,116.833 188.5,117.5C 187.833,117.5 187.5,117.833 187.5,118.5C 187.167,118.5 186.833,118.5 186.5,118.5C 185.833,118.5 185.5,118.833 185.5,119.5C 184.833,120.833 183.833,121.833 182.5,122.5C 181.833,122.5 181.5,122.833 181.5,123.5C 180.833,123.833 180.167,124.167 179.5,124.5C 178.833,124.5 178.5,124.833 178.5,125.5C 177.833,125.5 177.5,125.833 177.5,126.5C 176.508,126.328 175.842,126.662 175.5,127.5C 174.833,127.5 174.5,127.833 174.5,128.5C 173.167,128.833 173.167,129.167 174.5,129.5C 174.5,130.167 174.833,130.5 175.5,130.5C 175.5,131.167 175.833,131.5 176.5,131.5C 177.833,132.833 179.167,134.167 180.5,135.5C 180.5,136.167 180.833,136.5 181.5,136.5C 181.5,137.167 181.833,137.5 182.5,137.5C 182.5,138.167 182.833,138.5 183.5,138.5C 184.167,139.833 184.833,139.833 185.5,138.5C 186.167,138.5 186.5,138.167 186.5,137.5C 187.492,137.672 188.158,137.338 188.5,136.5C 191.398,135.595 194.065,134.262 196.5,132.5C 198.417,132.754 199.751,133.754 200.5,135.5C 200.5,136.167 200.833,136.5 201.5,136.5C 201.328,137.492 201.662,138.158 202.5,138.5C 201.99,141.539 201.323,144.539 200.5,147.5C 199.833,147.5 199.5,147.833 199.5,148.5C 199.5,148.833 199.5,149.167 199.5,149.5C 198.167,150.167 198.167,150.833 199.5,151.5C 199.5,152.167 199.833,152.5 200.5,152.5C 200.5,153.167 200.833,153.5 201.5,153.5C 201.5,154.167 201.833,154.5 202.5,154.5C 202.5,155.167 202.833,155.5 203.5,155.5C 203.5,156.167 203.833,156.5 204.5,156.5C 205.08,158.749 206.413,160.415 208.5,161.5C 208.5,162.167 208.833,162.5 209.5,162.5C 211.5,165.167 213.833,167.5 216.5,169.5C 216.5,169.833 216.5,170.167 216.5,170.5C 215.833,171.5 215.167,172.5 214.5,173.5C 213.833,173.5 213.5,173.833 213.5,174.5C 212.833,174.5 212.5,174.833 212.5,175.5C 212.167,175.5 211.833,175.5 211.5,175.5C 207.543,174.589 203.543,173.589 199.5,172.5C 199.167,172.5 198.833,172.5 198.5,172.5C 198.158,171.662 197.492,171.328 196.5,171.5C 195.513,168.914 193.513,167.581 190.5,167.5C 190.5,166.833 190.167,166.5 189.5,166.5C 189.167,166.5 188.833,166.5 188.5,166.5C 188.158,165.662 187.492,165.328 186.5,165.5C 186.158,164.662 185.492,164.328 184.5,164.5C 184.158,163.662 183.492,163.328 182.5,163.5C 181.486,162.326 180.153,161.66 178.5,161.5C 178.167,161.5 177.833,161.5 177.5,161.5C 177.5,160.833 177.167,160.5 176.5,160.5C 172.996,158.434 169.329,157.1 165.5,156.5C 164.432,155.566 163.099,155.232 161.5,155.5C 161.5,154.833 161.167,154.5 160.5,154.5C 158.5,154.5 156.5,154.5 154.5,154.5C 154.5,153.833 154.167,153.5 153.5,153.5C 151.833,153.5 150.167,153.5 148.5,153.5C 146.393,152.532 144.059,152.198 141.5,152.5C 139.5,151.167 137.5,151.167 135.5,152.5C 135.5,153.167 135.167,153.5 134.5,153.5C 134.167,152.167 133.833,152.167 133.5,153.5C 132.833,153.5 132.5,153.833 132.5,154.5C 129.429,156.898 126.095,158.898 122.5,160.5C 121.833,160.5 121.5,160.833 121.5,161.5C 120.508,161.328 119.842,161.662 119.5,162.5C 119.167,162.5 118.833,162.5 118.5,162.5C 117.508,162.328 116.842,162.662 116.5,163.5C 115.508,163.328 114.842,163.662 114.5,164.5C 113.209,164.263 112.209,164.596 111.5,165.5C 110.209,165.263 109.209,165.596 108.5,166.5C 107.209,166.263 106.209,166.596 105.5,167.5C 104.508,167.328 103.842,167.662 103.5,168.5C 99.7774,169.41 96.1107,170.743 92.5,172.5C 91.5084,172.328 90.8417,172.662 90.5,173.5C 90.1667,173.5 89.8333,173.5 89.5,173.5C 88.5084,173.328 87.8417,173.662 87.5,174.5C 86.1667,174.833 86.1667,175.167 87.5,175.5C 87.5,176.167 87.8333,176.5 88.5,176.5C 88.5,177.167 88.8333,177.5 89.5,177.5C 89.5,178.167 89.8333,178.5 90.5,178.5C 90.8333,178.5 91.1667,178.5 91.5,178.5C 91.5,179.167 91.8333,179.5 92.5,179.5C 92.5,180.167 92.8333,180.5 93.5,180.5C 93.9321,181.71 94.5987,182.71 95.5,183.5C 95.5,183.833 95.5,184.167 95.5,184.5C 95.8333,185.167 96.1667,185.833 96.5,186.5C 95.5416,186.953 94.7083,187.619 94,188.5C 92.3745,188.146 90.5412,188.146 88.5,188.5C 88.1667,188.5 87.8333,188.5 87.5,188.5C 87.1583,187.662 86.4916,187.328 85.5,187.5C 84.791,186.596 83.791,186.263 82.5,186.5C 82.1583,185.662 81.4916,185.328 80.5,185.5C 80.5,184.833 80.1667,184.5 79.5,184.5C 79.1667,184.5 78.8333,184.5 78.5,184.5C 76.2504,183.87 74.2504,182.87 72.5,181.5C 72.5,180.833 72.1667,180.5 71.5,180.5C 70.8333,180.5 70.1667,180.5 69.5,180.5C 68.791,179.596 67.791,179.263 66.5,179.5C 62.7016,178.517 58.7016,178.183 54.5,178.5C 54.5,177.833 54.1667,177.5 53.5,177.5C 53.5,176.833 53.1667,176.5 52.5,176.5C 52.6716,175.508 52.3382,174.842 51.5,174.5C 45.7671,172.656 39.7671,171.656 33.5,171.5C 33.5,170.833 33.1667,170.5 32.5,170.5C 30.6943,169.976 29.0276,169.309 27.5,168.5C 27.5,167.833 27.1667,167.5 26.5,167.5C 25.5,167.5 24.5,167.5 23.5,167.5C 23.1583,166.662 22.4916,166.328 21.5,166.5C 19.195,164.955 18.8617,162.955 20.5,160.5C 23.0897,159.986 25.7564,159.986 28.5,160.5C 30.9479,161.473 33.6146,161.806 36.5,161.5C 36.5,162.167 36.8333,162.5 37.5,162.5C 40.8333,162.5 44.1667,162.5 47.5,162.5C 51.3799,163.456 55.3799,163.956 59.5,164C 58.868,160.73 58.2014,157.563 57.5,154.5C 57.8064,151.615 57.4731,148.948 56.5,146.5C 56.5,143.833 56.5,141.167 56.5,138.5C 55.9093,135.325 56.9093,132.991 59.5,131.5C 59.8333,131.5 60.1667,131.5 60.5,131.5C 61.1667,131.5 61.5,131.167 61.5,130.5C 62.5,130.5 63.5,130.5 64.5,130.5C 64.5,131.167 64.8333,131.5 65.5,131.5C 65.5,132.167 65.8333,132.5 66.5,132.5C 66.9321,133.71 67.5987,134.71 68.5,135.5C 68.5,136.167 68.8333,136.5 69.5,136.5C 69.5,137.167 69.8333,137.5 70.5,137.5C 70.5,138.167 70.8333,138.5 71.5,138.5C 71.5,139.167 71.8333,139.5 72.5,139.5C 72.5,140.167 72.8333,140.5 73.5,140.5C 73.5,141.167 73.8333,141.5 74.5,141.5C 74.5,142.167 74.8333,142.5 75.5,142.5C 75.5,143.167 75.8333,143.5 76.5,143.5C 76.5,144.167 76.8333,144.5 77.5,144.5C 77.427,146.027 78.0937,147.027 79.5,147.5C 79.5,148.167 79.8333,148.5 80.5,148.5C 80.5,149.167 80.8333,149.5 81.5,149.5C 81.8333,150.833 82.1667,150.833 82.5,149.5C 83.1667,149.5 83.5,149.167 83.5,148.5C 85.8171,147.18 87.8171,145.514 89.5,143.5C 90.1667,143.5 90.5,143.167 90.5,142.5C 91.1667,142.5 91.5,142.167 91.5,141.5C 92.1667,141.5 92.5,141.167 92.5,140.5C 93.1667,140.5 93.5,140.167 93.5,139.5C 93.8333,139.5 94.1667,139.5 94.5,139.5C 95.5,139.5 96.5,139.5 97.5,139.5C 97.4772,137.4 98.1439,135.567 99.5,134C 96.0149,131.348 92.6816,128.515 89.5,125.5C 86.9011,122.906 87.2344,121.406 90.5,121C 89.8333,120.667 89.1667,120.333 88.5,120C 91.6584,119.994 94.825,119.161 98,117.5C 98.6891,118.357 99.5224,119.023 100.5,119.5C 101.5,118.167 102.5,118.167 103.5,119.5C 106.747,116.023 110.58,113.357 115,111.5C 115.333,112.167 115.667,112.833 116,113.5C 116.519,112.484 117.353,111.818 118.5,111.5C 122.93,111.033 126.096,113.033 128,117.5C 131.89,117.408 135.89,116.741 140,115.5C 142.151,114.412 144.318,112.578 146.5,110C 145.5,109 144.5,108 143.5,107C 144.536,105.383 145.703,105.216 147,106.5C 148.984,104.237 151.151,102.07 153.5,100C 154.449,99.3828 155.282,99.5494 156,100.5C 157.852,98.7703 157.686,97.6036 155.5,97C 156.756,96.5831 157.423,95.7498 157.5,94.5C 158.167,94.5 158.5,94.1667 158.5,93.5C 159.167,93.5 159.5,93.1667 159.5,92.5C 159.833,92.5 160.167,92.5 160.5,92.5C 161.167,92.5 161.5,92.1667 161.5,91.5C 162.492,91.6716 163.158,91.3382 163.5,90.5C 164.167,90.5 164.5,90.1667 164.5,89.5C 165.492,89.6716 166.158,89.3382 166.5,88.5C 167.167,88.5 167.5,88.1667 167.5,87.5C 167.833,87.5 168.167,87.5 168.5,87.5C 169.167,87.5 169.5,87.1667 169.5,86.5C 171.027,86.573 172.027,85.9063 172.5,84.5C 173.29,83.5987 174.29,82.9321 175.5,82.5C 176.167,82.5 176.5,82.1667 176.5,81.5C 176.833,81.5 177.167,81.5 177.5,81.5C 178.167,81.5 178.5,81.1667 178.5,80.5C 179.492,80.6716 180.158,80.3382 180.5,79.5C 181.167,79.5 181.5,79.1667 181.5,78.5C 181.833,78.5 182.167,78.5 182.5,78.5C 183.167,78.5 183.5,78.1667 183.5,77.5C 183.833,77.5 184.167,77.5 184.5,77.5C 184.833,77.5 185.167,77.5 185.5,77.5C 186.167,77.5 186.5,77.1667 186.5,76.5C 187.167,76.5 187.5,76.1667 187.5,75.5C 188.492,75.6716 189.158,75.3382 189.5,74.5C 190.167,74.5 190.5,74.1667 190.5,73.5C 192.849,71.659 195.515,70.3257 198.5,69.5C 199.167,69.5 199.5,69.1667 199.5,68.5C 199.833,68.5 200.167,68.5 200.5,68.5C 201.791,68.7373 202.791,68.404 203.5,67.5C 204.791,67.7373 205.791,67.404 206.5,66.5 Z M 108.5,166.5 C 109.209,165.596 110.209,165.263 111.5,165.5C 110.895,167.481 109.895,167.815 108.5,166.5 Z"/></g>
<g><path style="opacity:0.004" fill="#060604" d="M 65.5,77.5 C 66.552,77.3505 67.552,77.5172 68.5,78C 67.0577,78.3768 66.0577,79.2101 65.5,80.5C 65.5,81.1667 65.1667,81.5 64.5,81.5C 64.1667,80.1667 63.8333,80.1667 63.5,81.5C 63.5,82.1667 63.1667,82.5 62.5,82.5C 62.1667,81.1667 61.8333,81.1667 61.5,82.5C 59.1401,84.8532 56.4735,86.8532 53.5,88.5C 53.1667,87.1667 52.8333,87.1667 52.5,88.5C 52.5,89.1667 52.1667,89.5 51.5,89.5C 51.1667,88.1667 50.8333,88.1667 50.5,89.5C 49.5084,89.3284 48.8417,89.6618 48.5,90.5C 47.8333,90.5 47.5,90.8333 47.5,91.5C 46.5084,91.3284 45.8417,91.6618 45.5,92.5C 44.8333,92.5 44.5,92.8333 44.5,93.5C 43.8333,93.5 43.5,93.8333 43.5,94.5C 43.1667,94.5 42.8333,94.5 42.5,94.5C 41.8333,94.5 41.5,94.8333 41.5,95.5C 40.8333,96.1667 40.1667,96.8333 39.5,97.5C 38.8333,97.5 38.5,97.8333 38.5,98.5C 37.8333,98.5 37.5,98.8333 37.5,99.5C 32.0767,99.4763 26.7434,98.8097 21.5,97.5C 19.9456,96.1054 20.279,95.4387 22.5,95.5C 26.3284,96.0192 30.3284,96.5192 34.5,97C 37.0521,94.8539 39.7187,92.8539 42.5,91C 43.2524,90.3292 43.5858,89.4959 43.5,88.5C 43.8333,88.5 44.1667,88.5 44.5,88.5C 45.1667,89.8333 45.8333,89.8333 46.5,88.5C 47.1667,88.5 47.5,88.1667 47.5,87.5C 47.8333,87.5 48.1667,87.5 48.5,87.5C 49.1667,87.5 49.5,87.1667 49.5,86.5C 52.3953,85.2013 55.062,83.5346 57.5,81.5C 58.1667,81.5 58.5,81.1667 58.5,80.5C 58.8333,80.5 59.1667,80.5 59.5,80.5C 60.1667,80.5 60.5,80.1667 60.5,79.5C 60.8333,79.5 61.1667,79.5 61.5,79.5C 62.1667,79.5 62.5,79.1667 62.5,78.5C 62.8333,78.5 63.1667,78.5 63.5,78.5C 64.4916,78.6716 65.1583,78.3382 65.5,77.5 Z"/></g>
<g><path style="opacity:0.561" fill="#a15b5d" d="M 84.5,63.5 C 83.3747,65.1288 82.0414,66.6288 80.5,68C 81.5266,68.5133 82.5266,69.0133 83.5,69.5C 80.815,71.6869 77.1484,73.1869 72.5,74C 72.8333,74.3333 73.1667,74.6667 73.5,75C 72.0069,76.3681 70.5069,76.5348 69,75.5C 67.6976,76.0848 66.531,76.7515 65.5,77.5C 64.5084,77.3284 63.8417,77.6618 63.5,78.5C 63.1667,78.5 62.8333,78.5 62.5,78.5C 61.8333,78.5 61.5,78.8333 61.5,79.5C 61.1667,79.5 60.8333,79.5 60.5,79.5C 59.8333,79.5 59.5,79.8333 59.5,80.5C 59.1667,80.5 58.8333,80.5 58.5,80.5C 57.8333,80.5 57.5,80.8333 57.5,81.5C 55.062,83.5346 52.3953,85.2013 49.5,86.5C 48.8333,86.5 48.5,86.8333 48.5,87.5C 48.1667,87.5 47.8333,87.5 47.5,87.5C 46.8333,87.5 46.5,87.8333 46.5,88.5C 45.8333,88.5 45.1667,88.5 44.5,88.5C 44.1667,88.5 43.8333,88.5 43.5,88.5C 43.5,88.1667 43.5,87.8333 43.5,87.5C 45.1935,84.8103 47.5268,82.8103 50.5,81.5C 51.1667,81.5 51.5,81.1667 51.5,80.5C 52.1667,80.5 52.5,80.1667 52.5,79.5C 52.8333,79.5 53.1667,79.5 53.5,79.5C 54.1667,79.5 54.5,79.1667 54.5,78.5C 54.8333,78.5 55.1667,78.5 55.5,78.5C 56.1667,78.5 56.5,78.1667 56.5,77.5C 57.4916,77.6716 58.1583,77.3382 58.5,76.5C 58.8333,76.5 59.1667,76.5 59.5,76.5C 60.1667,76.5 60.5,76.1667 60.5,75.5C 61.1667,75.5 61.5,75.1667 61.5,74.5C 64.1305,72.8474 66.7972,71.1807 69.5,69.5C 70.4916,69.6716 71.1583,69.3382 71.5,68.5C 73.153,68.3404 74.4863,67.6737 75.5,66.5C 76.4916,66.6716 77.1583,66.3382 77.5,65.5C 78.4916,65.6716 79.1583,65.3382 79.5,64.5C 81.2161,64.3713 82.8828,64.038 84.5,63.5 Z"/></g>
<g><path style="opacity:0.004" fill="#030302" d="M 223.5,81.5 C 223.833,81.5 224.167,81.5 224.5,81.5C 224.5,82.1667 224.833,82.5 225.5,82.5C 225.5,83.1667 225.833,83.5 226.5,83.5C 226.5,83.8333 226.5,84.1667 226.5,84.5C 226.5,85.1667 226.833,85.5 227.5,85.5C 228.167,85.5 228.5,85.8333 228.5,86.5C 226.637,87.9672 225.304,89.9672 224.5,92.5C 225.38,95.125 224.713,97.4584 222.5,99.5C 217.179,104.655 212.012,109.988 207,115.5C 206.667,115.167 206.333,114.833 206,114.5C 205.933,117.047 205.099,119.214 203.5,121C 205.061,126.578 207.061,132.078 209.5,137.5C 212.304,138.305 215.138,138.972 218,139.5C 219.635,139.122 221.135,138.456 222.5,137.5C 225.2,133.296 227.7,128.963 230,124.5C 230.038,120.437 230.872,116.603 232.5,113C 232.579,111.093 232.246,109.093 231.5,107C 232.085,105.698 232.751,104.531 233.5,103.5C 233.5,103.833 233.5,104.167 233.5,104.5C 233.5,107.833 233.5,111.167 233.5,114.5C 233.5,114.833 233.5,115.167 233.5,115.5C 231.989,118.544 231.322,121.878 231.5,125.5C 230.596,126.209 230.263,127.209 230.5,128.5C 229.662,128.842 229.328,129.508 229.5,130.5C 228.596,131.209 228.263,132.209 228.5,133.5C 226.896,134.287 226.229,135.62 226.5,137.5C 225.094,137.973 224.427,138.973 224.5,140.5C 223.662,140.842 223.328,141.508 223.5,142.5C 222.662,142.842 222.328,143.508 222.5,144.5C 221.662,144.842 221.328,145.508 221.5,146.5C 220.833,146.5 220.5,146.833 220.5,147.5C 220.5,147.833 220.5,148.167 220.5,148.5C 219.833,148.5 219.5,148.833 219.5,149.5C 218.833,149.5 218.5,149.833 218.5,150.5C 217.662,150.842 217.328,151.508 217.5,152.5C 216.833,152.5 216.5,152.833 216.5,153.5C 215.833,153.5 215.5,153.833 215.5,154.5C 214.833,154.5 214.5,154.833 214.5,155.5C 214.167,155.5 213.833,155.5 213.5,155.5C 213.5,155.167 213.5,154.833 213.5,154.5C 213.5,154.167 213.5,153.833 213.5,153.5C 214.167,153.5 214.5,153.167 214.5,152.5C 215.167,152.5 215.5,152.167 215.5,151.5C 216.234,150.292 216.567,148.959 216.5,147.5C 215.127,147.343 213.793,147.51 212.5,148C 213.738,148.69 213.738,149.19 212.5,149.5C 211.833,149.5 211.5,149.833 211.5,150.5C 210.833,150.5 210.5,150.833 210.5,151.5C 209.833,151.5 209.5,151.833 209.5,152.5C 208.833,152.5 208.5,152.833 208.5,153.5C 207.074,154.341 205.74,155.341 204.5,156.5C 203.833,156.5 203.5,156.167 203.5,155.5C 202.833,155.5 202.5,155.167 202.5,154.5C 201.833,154.5 201.5,154.167 201.5,153.5C 200.833,153.5 200.5,153.167 200.5,152.5C 199.833,152.5 199.5,152.167 199.5,151.5C 199.5,150.833 199.5,150.167 199.5,149.5C 199.5,149.167 199.5,148.833 199.5,148.5C 200.167,148.5 200.5,148.167 200.5,147.5C 203.784,148.738 205.284,147.405 205,143.5C 205.808,141.421 205.641,139.421 204.5,137.5C 203.817,137.863 203.15,138.196 202.5,138.5C 202.672,137.508 202.338,136.842 201.5,136.5C 200.833,136.5 200.5,136.167 200.5,135.5C 199.751,133.754 198.417,132.754 196.5,132.5C 194.065,134.262 191.398,135.595 188.5,136.5C 187.508,136.328 186.842,136.662 186.5,137.5C 185.833,137.5 185.5,137.833 185.5,138.5C 184.833,139.833 184.167,139.833 183.5,138.5C 182.833,138.5 182.5,138.167 182.5,137.5C 181.833,137.5 181.5,137.167 181.5,136.5C 180.833,136.5 180.5,136.167 180.5,135.5C 179.167,134.167 177.833,132.833 176.5,131.5C 175.833,131.5 175.5,131.167 175.5,130.5C 174.833,130.5 174.5,130.167 174.5,129.5C 174.5,129.167 174.5,128.833 174.5,128.5C 175.167,128.5 175.5,128.167 175.5,127.5C 176.492,127.672 177.158,127.338 177.5,126.5C 178.167,126.5 178.5,126.167 178.5,125.5C 179.167,125.5 179.5,125.167 179.5,124.5C 180.167,124.167 180.833,123.833 181.5,123.5C 182.167,123.5 182.5,123.167 182.5,122.5C 183.833,121.833 184.833,120.833 185.5,119.5C 186.167,119.5 186.5,119.167 186.5,118.5C 186.833,118.5 187.167,118.5 187.5,118.5C 188.167,118.5 188.5,118.167 188.5,117.5C 189.167,117.5 189.5,117.167 189.5,116.5C 190.492,116.672 191.158,116.338 191.5,115.5C 192.167,115.5 192.5,115.167 192.5,114.5C 193.492,114.672 194.158,114.338 194.5,113.5C 195.167,113.5 195.5,113.167 195.5,112.5C 195.5,111.833 195.833,111.5 196.5,111.5C 196.833,112.833 197.167,112.833 197.5,111.5C 198.167,111.5 198.5,111.167 198.5,110.5C 199.167,109.167 200.167,108.167 201.5,107.5C 201.833,107.5 202.167,107.5 202.5,107.5C 203.167,106.833 203.833,106.167 204.5,105.5C 205.167,105.5 205.5,105.167 205.5,104.5C 206.167,104.5 206.5,104.167 206.5,103.5C 207.167,103.5 207.5,103.167 207.5,102.5C 208.167,102.5 208.5,102.167 208.5,101.5C 211.243,99.7607 213.243,97.4274 214.5,94.5C 215.167,94.5 215.5,94.1667 215.5,93.5C 216.167,93.5 216.5,93.1667 216.5,92.5C 217.167,92.5 217.5,92.1667 217.5,91.5C 218.338,91.1583 218.672,90.4916 218.5,89.5C 219.167,89.5 219.5,89.1667 219.5,88.5C 220.167,88.5 220.5,88.1667 220.5,87.5C 220.842,86.6618 221.508,86.3284 222.5,86.5C 222.859,88.8312 223.526,88.6645 224.5,86C 223.944,85.6174 223.611,85.1174 223.5,84.5C 223.5,84.1667 223.5,83.8333 223.5,83.5C 223.5,83.1667 223.5,82.8333 223.5,82.5C 223.5,82.1667 223.5,81.8333 223.5,81.5 Z"/></g>
<g><path style="opacity:0.004" fill="#eae5c3" d="M 172.5,84.5 C 172.027,85.9063 171.027,86.573 169.5,86.5C 169.167,86.5 168.833,86.5 168.5,86.5C 169.514,85.3263 170.847,84.6596 172.5,84.5 Z"/></g>
<g><path style="opacity:0.004" fill="#080808" d="M 228.5,87.5 C 228.5,88.1667 228.833,88.5 229.5,88.5C 230.167,88.5 230.5,88.8333 230.5,89.5C 229.167,89.8333 229.167,90.1667 230.5,90.5C 229.056,94.123 228.056,93.623 227.5,89C 227.57,88.2352 227.903,87.7352 228.5,87.5 Z"/></g>
<g><path style="opacity:0.004" fill="#040404" d="M 231.5,92.5 C 231.5,92.8333 231.5,93.1667 231.5,93.5C 231.263,94.791 231.596,95.791 232.5,96.5C 233.167,96.5 233.5,96.8333 233.5,97.5C 232.837,99.0419 232.17,100.709 231.5,102.5C 230.194,99.0202 230.194,95.6868 231.5,92.5 Z"/></g>
<g><path style="opacity:0.984" fill="#d33840" d="M 210.5,67.5 C 215.481,68.0892 220.481,68.5892 225.5,69C 227.85,75.9042 231.017,82.4042 235,88.5C 236.224,97.6875 236.557,107.021 236,116.5C 234.975,121.268 233.642,125.934 232,130.5C 231.502,132.544 230.335,133.878 228.5,134.5C 228.5,134.167 228.5,133.833 228.5,133.5C 229.404,132.791 229.737,131.791 229.5,130.5C 230.338,130.158 230.672,129.492 230.5,128.5C 231.404,127.791 231.737,126.791 231.5,125.5C 232.785,122.411 233.451,119.078 233.5,115.5C 233.5,115.167 233.5,114.833 233.5,114.5C 234.833,111.167 234.833,107.833 233.5,104.5C 233.5,104.167 233.5,103.833 233.5,103.5C 233.5,101.5 233.5,99.5 233.5,97.5C 233.5,96.8333 233.167,96.5 232.5,96.5C 232.737,95.209 232.404,94.209 231.5,93.5C 231.5,93.1667 231.5,92.8333 231.5,92.5C 231.672,91.5084 231.338,90.8417 230.5,90.5C 230.5,90.1667 230.5,89.8333 230.5,89.5C 230.5,88.8333 230.167,88.5 229.5,88.5C 228.833,88.5 228.5,88.1667 228.5,87.5C 228.5,87.1667 228.5,86.8333 228.5,86.5C 228.5,85.8333 228.167,85.5 227.5,85.5C 226.833,85.5 226.5,85.1667 226.5,84.5C 226.5,84.1667 226.5,83.8333 226.5,83.5C 225.833,83.5 225.5,83.1667 225.5,82.5C 224.833,82.5 224.5,82.1667 224.5,81.5C 224.5,81.1667 224.5,80.8333 224.5,80.5C 225.509,77.4726 225.509,74.4726 224.5,71.5C 219.649,70.3307 214.982,68.9974 210.5,67.5 Z"/></g>
<g><path style="opacity:1" fill="#3d3c8d" d="M 85.5,71.5 C 87.918,72.2931 89.918,73.6264 91.5,75.5C 83.1973,79.5004 74.864,83.6671 66.5,88C 60.3447,91.8338 54.8447,96.3338 50,101.5C 49.0862,100.346 48.2529,100.513 47.5,102C 51.0601,103.237 54.7267,103.737 58.5,103.5C 59.9187,104.451 61.5853,104.784 63.5,104.5C 63.5,105.167 63.8333,105.5 64.5,105.5C 66.1667,105.5 67.8333,105.5 69.5,105.5C 69.5,106.167 69.8333,106.5 70.5,106.5C 72.1667,106.5 73.8333,106.5 75.5,106.5C 76.1667,106.833 76.8333,107.167 77.5,107.5C 79.5,107.5 81.5,107.5 83.5,107.5C 89.2217,108.756 94.8884,109.756 100.5,110.5C 102.167,111.833 103.833,111.833 105.5,110.5C 107.604,110.799 109.604,110.466 111.5,109.5C 113.029,108.237 114.695,107.237 116.5,106.5C 117.791,106.737 118.791,106.404 119.5,105.5C 120.167,105.5 120.833,105.5 121.5,105.5C 121.842,106.338 122.508,106.672 123.5,106.5C 126.194,107.861 128.194,109.861 129.5,112.5C 129.833,113.833 130.167,113.833 130.5,112.5C 130.5,111.833 130.833,111.5 131.5,111.5C 131.833,112.833 132.167,112.833 132.5,111.5C 134.576,109.416 136.91,107.749 139.5,106.5C 140.167,106.5 140.5,106.167 140.5,105.5C 140.833,105.5 141.167,105.5 141.5,105.5C 142.167,105.5 142.5,105.167 142.5,104.5C 143.167,104.5 143.5,104.167 143.5,103.5C 144.492,103.672 145.158,103.338 145.5,102.5C 145.833,102.5 146.167,102.5 146.5,102.5C 147.167,102.5 147.5,102.167 147.5,101.5C 148.167,101.5 148.5,101.167 148.5,100.5C 149.492,100.672 150.158,100.338 150.5,99.5C 151.167,99.5 151.5,99.1667 151.5,98.5C 153.035,96.565 155.035,95.2317 157.5,94.5C 157.423,95.7498 156.756,96.5831 155.5,97C 157.686,97.6036 157.852,98.7703 156,100.5C 155.282,99.5494 154.449,99.3828 153.5,100C 151.151,102.07 148.984,104.237 147,106.5C 145.703,105.216 144.536,105.383 143.5,107C 144.5,108 145.5,109 146.5,110C 144.318,112.578 142.151,114.412 140,115.5C 135.89,116.741 131.89,117.408 128,117.5C 126.096,113.033 122.93,111.033 118.5,111.5C 117.353,111.818 116.519,112.484 116,113.5C 115.667,112.833 115.333,112.167 115,111.5C 110.58,113.357 106.747,116.023 103.5,119.5C 102.5,118.167 101.5,118.167 100.5,119.5C 99.5224,119.023 98.6891,118.357 98,117.5C 94.825,119.161 91.6584,119.994 88.5,120C 89.1667,120.333 89.8333,120.667 90.5,121C 87.2344,121.406 86.9011,122.906 89.5,125.5C 92.6816,128.515 96.0149,131.348 99.5,134C 98.1439,135.567 97.4772,137.4 97.5,139.5C 96.5,139.5 95.5,139.5 94.5,139.5C 94.6716,138.508 94.3382,137.842 93.5,137.5C 93.1667,137.5 92.8333,137.5 92.5,137.5C 92.5,136.833 92.1667,136.5 91.5,136.5C 91.5,135.833 91.1667,135.5 90.5,135.5C 90.1667,135.5 89.8333,135.5 89.5,135.5C 88.6829,132.444 86.6829,130.777 83.5,130.5C 83.5,129.833 83.1667,129.5 82.5,129.5C 82.5,128.833 82.1667,128.5 81.5,128.5C 81.1667,128.5 80.8333,128.5 80.5,128.5C 80.1583,127.662 79.4916,127.328 78.5,127.5C 78.1583,126.662 77.4916,126.328 76.5,126.5C 74.7857,125.262 72.7857,124.595 70.5,124.5C 70.1667,124.5 69.8333,124.5 69.5,124.5C 59.8254,121.928 50.4921,119.261 41.5,116.5C 38.9107,114.843 36.2441,114.509 33.5,115.5C 32.8333,115.5 32.5,115.833 32.5,116.5C 31.8333,116.5 31.5,116.833 31.5,117.5C 30.8333,117.5 30.5,117.833 30.5,118.5C 29.8333,118.5 29.5,118.833 29.5,119.5C 28.5987,120.29 27.9321,121.29 27.5,122.5C 26.5,122.833 25.8333,123.5 25.5,124.5C 25.5,124.833 25.5,125.167 25.5,125.5C 24.8333,125.5 24.5,125.833 24.5,126.5C 23.8333,126.5 23.5,126.833 23.5,127.5C 21.1373,130.549 19.1373,133.882 17.5,137.5C 17.5,137.833 17.5,138.167 17.5,138.5C 16.5987,139.29 15.9321,140.29 15.5,141.5C 14.8333,141.5 14.5,141.833 14.5,142.5C 14.1667,143.833 13.8333,145.167 13.5,146.5C 13.5,146.833 13.5,147.167 13.5,147.5C 12.6618,147.842 12.3284,148.508 12.5,149.5C 12.5,149.833 12.5,150.167 12.5,150.5C 11.6618,150.842 11.3284,151.508 11.5,152.5C 11.5,152.833 11.5,153.167 11.5,153.5C 10.5655,154.568 10.2322,155.901 10.5,157.5C 9.83333,157.5 9.5,157.833 9.5,158.5C 9.17859,164.026 9.51192,169.36 10.5,174.5C 10.5,174.833 10.5,175.167 10.5,175.5C 10.2627,176.791 10.596,177.791 11.5,178.5C 11.5,178.833 11.5,179.167 11.5,179.5C 11.3284,180.492 11.6618,181.158 12.5,181.5C 12.5,181.833 12.5,182.167 12.5,182.5C 11.6091,183.261 10.9424,184.261 10.5,185.5C 10.3886,187.109 10.722,188.775 11.5,190.5C 11.1667,190.5 10.8333,190.5 10.5,190.5C 10.5,189.833 10.1667,189.5 9.5,189.5C 8.61913,187.034 6.78579,184.7 4,182.5C 3.66667,180.833 3.33333,179.167 3,177.5C 2.66667,178.167 2.33333,178.833 2,179.5C 1.21774,176.69 0.384409,174.023 -0.5,171.5C -0.5,171.167 -0.5,170.833 -0.5,170.5C 0.833333,169.5 0.833333,168.5 -0.5,167.5C -0.5,163.5 -0.5,159.5 -0.5,155.5C 0.833333,155.167 0.833333,154.833 -0.5,154.5C -0.5,153.5 -0.5,152.5 -0.5,151.5C 0.906316,151.027 1.57298,150.027 1.5,148.5C 2.83333,147.5 2.83333,146.5 1.5,145.5C 2.16667,145.5 2.5,145.167 2.5,144.5C 3.33825,144.158 3.67158,143.492 3.5,142.5C 3.5,142.167 3.5,141.833 3.5,141.5C 4.33825,141.158 4.67158,140.492 4.5,139.5C 5.83333,139.167 5.83333,138.833 4.5,138.5C 4.5,137.833 4.83333,137.5 5.5,137.5C 6.83333,137.167 6.83333,136.833 5.5,136.5C 5.5,135.833 5.83333,135.5 6.5,135.5C 7.16667,135.5 7.5,135.167 7.5,134.5C 7.89254,132.716 8.5592,131.05 9.5,129.5C 10.1667,129.5 10.5,129.167 10.5,128.5C 11.1667,128.5 11.5,128.167 11.5,127.5C 12.1667,127.5 12.5,127.167 12.5,126.5C 12.5,126.167 12.5,125.833 12.5,125.5C 13.1667,125.5 13.5,125.167 13.5,124.5C 14.1667,124.5 14.5,124.167 14.5,123.5C 15.1667,123.5 15.5,123.167 15.5,122.5C 16.3446,121.329 17.0113,119.995 17.5,118.5C 18.1667,118.5 18.5,118.167 18.5,117.5C 19.1667,117.5 19.5,117.167 19.5,116.5C 20.1667,116.5 20.5,116.167 20.5,115.5C 21.1667,115.5 21.5,115.167 21.5,114.5C 22.1667,114.5 22.5,114.167 22.5,113.5C 23.8333,112.833 23.8333,112.167 22.5,111.5C 16.8753,110.045 11.3753,108.045 6,105.5C 1.81935,107.489 -0.0139851,106.155 0.5,101.5C 0.550737,99.9002 0.884071,98.4002 1.5,97C 3.89073,96.7132 6.22406,96.2132 8.5,95.5C 12.7127,96.9114 17.046,97.5781 21.5,97.5C 23.3052,99.1969 25.6385,100.03 28.5,100C 31.6965,100.805 34.6965,100.638 37.5,99.5C 38.1667,99.5 38.5,99.1667 38.5,98.5C 39.1667,98.5 39.5,98.1667 39.5,97.5C 40.1667,96.8333 40.8333,96.1667 41.5,95.5C 42.1667,95.5 42.5,95.1667 42.5,94.5C 42.8333,94.5 43.1667,94.5 43.5,94.5C 44.1667,94.5 44.5,94.1667 44.5,93.5C 45.1667,93.5 45.5,93.1667 45.5,92.5C 46.4916,92.6716 47.1583,92.3382 47.5,91.5C 48.1667,91.5 48.5,91.1667 48.5,90.5C 49.4916,90.6716 50.1583,90.3382 50.5,89.5C 50.8333,89.5 51.1667,89.5 51.5,89.5C 52.1667,89.5 52.5,89.1667 52.5,88.5C 52.8333,88.5 53.1667,88.5 53.5,88.5C 56.4735,86.8532 59.1401,84.8532 61.5,82.5C 61.8333,82.5 62.1667,82.5 62.5,82.5C 63.1667,82.5 63.5,82.1667 63.5,81.5C 63.8333,81.5 64.1667,81.5 64.5,81.5C 65.1667,81.5 65.5,81.1667 65.5,80.5C 72.4342,78.0317 79.1009,75.0317 85.5,71.5 Z M 21.5,97.5 C 26.7434,98.8097 32.0767,99.4763 37.5,99.5C 34.6965,100.638 31.6965,100.805 28.5,100C 25.6385,100.03 23.3052,99.1969 21.5,97.5 Z M 33.5,115.5 C 36.2441,114.509 38.9107,114.843 41.5,116.5C 40.0695,116.421 38.7362,116.754 37.5,117.5C 36.4763,116.147 35.143,115.48 33.5,115.5 Z M 70.5,124.5 C 72.7857,124.595 74.7857,125.262 76.5,126.5C 74.1016,126.741 72.1016,126.074 70.5,124.5 Z"/></g>
<g><path style="opacity:0.004" fill="#0e0d08" d="M 22.5,111.5 C 22.5,112.167 22.5,112.833 22.5,113.5C 21.8333,113.5 21.5,113.833 21.5,114.5C 20.8333,114.5 20.5,114.833 20.5,115.5C 19.8333,115.5 19.5,115.833 19.5,116.5C 18.8333,116.5 18.5,116.833 18.5,117.5C 17.8333,117.5 17.5,117.833 17.5,118.5C 17.0113,119.995 16.3446,121.329 15.5,122.5C 15.5,123.167 15.1667,123.5 14.5,123.5C 13.8333,123.5 13.5,123.833 13.5,124.5C 12.8333,124.5 12.5,124.833 12.5,125.5C 11.1667,125.833 11.1667,126.167 12.5,126.5C 12.5,127.167 12.1667,127.5 11.5,127.5C 10.8333,127.5 10.5,127.833 10.5,128.5C 9.83333,128.5 9.5,128.833 9.5,129.5C 8.5592,131.05 7.89254,132.716 7.5,134.5C 6.83333,134.5 6.5,134.833 6.5,135.5C 5.83333,135.5 5.5,135.833 5.5,136.5C 5.5,136.833 5.5,137.167 5.5,137.5C 4.83333,137.5 4.5,137.833 4.5,138.5C 4.5,138.833 4.5,139.167 4.5,139.5C 3.66175,139.842 3.32842,140.508 3.5,141.5C 2.16667,141.833 2.16667,142.167 3.5,142.5C 3.67158,143.492 3.33825,144.158 2.5,144.5C 1.83333,144.5 1.5,144.833 1.5,145.5C 2.83333,146.5 2.83333,147.5 1.5,148.5C 0.255482,145.481 0.255482,142.314 1.5,139C 3.3817,135.14 5.21503,131.306 7,127.5C 9.74821,123.698 12.5815,120.031 15.5,116.5C 16.4287,115.311 16.762,113.978 16.5,112.5C 18.5648,112.483 20.5648,112.15 22.5,111.5 Z"/></g>
<g><path style="opacity:0.004" fill="#050401" d="M 33.5,115.5 C 35.143,115.48 36.4763,116.147 37.5,117.5C 38.7362,116.754 40.0695,116.421 41.5,116.5C 38.9084,118.089 38.9084,119.755 41.5,121.5C 38.9135,122.48 36.2469,122.813 33.5,122.5C 33.5,123.5 33.5,124.5 33.5,125.5C 31.8008,125.66 30.1341,125.494 28.5,125C 29.8825,123.539 29.5492,122.706 27.5,122.5C 27.9321,121.29 28.5987,120.29 29.5,119.5C 30.1667,119.5 30.5,119.167 30.5,118.5C 31.1667,118.5 31.5,118.167 31.5,117.5C 32.1667,117.5 32.5,117.167 32.5,116.5C 33.1667,116.5 33.5,116.167 33.5,115.5 Z"/></g>
<g><path style="opacity:0.004" fill="#000000" d="M 27.5,122.5 C 27.634,124.292 27.3007,125.958 26.5,127.5C 25.6618,127.842 25.3284,128.508 25.5,129.5C 24.1667,129.5 23.5,128.833 23.5,127.5C 24.1667,127.5 24.5,127.167 24.5,126.5C 25.1667,126.5 25.5,126.167 25.5,125.5C 26.8333,125.167 26.8333,124.833 25.5,124.5C 25.8333,123.5 26.5,122.833 27.5,122.5 Z"/></g>
<g><path style="opacity:0.004" fill="#040302" d="M 69.5,124.5 C 69.8333,124.5 70.1667,124.5 70.5,124.5C 72.1016,126.074 74.1016,126.741 76.5,126.5C 76.8417,127.338 77.5084,127.672 78.5,127.5C 78.8417,128.338 79.5084,128.672 80.5,128.5C 80.8333,129.833 81.1667,129.833 81.5,128.5C 82.1667,128.5 82.5,128.833 82.5,129.5C 83.1667,129.5 83.5,129.833 83.5,130.5C 86.6829,130.777 88.6829,132.444 89.5,135.5C 89.8333,135.5 90.1667,135.5 90.5,135.5C 91.1667,135.5 91.5,135.833 91.5,136.5C 92.1667,136.5 92.5,136.833 92.5,137.5C 92.8333,137.5 93.1667,137.5 93.5,137.5C 93.5,138.167 93.5,138.833 93.5,139.5C 92.8333,139.5 92.5,139.833 92.5,140.5C 91.8333,140.5 91.5,140.833 91.5,141.5C 90.8333,141.5 90.5,141.833 90.5,142.5C 89.8333,142.5 89.5,142.833 89.5,143.5C 87.8171,145.514 85.8171,147.18 83.5,148.5C 82.8333,148.5 82.5,148.833 82.5,149.5C 82.1667,149.5 81.8333,149.5 81.5,149.5C 80.8333,149.5 80.5,149.167 80.5,148.5C 79.8333,148.5 79.5,148.167 79.5,147.5C 78.0937,147.027 77.427,146.027 77.5,144.5C 76.8333,144.5 76.5,144.167 76.5,143.5C 75.8333,143.5 75.5,143.167 75.5,142.5C 74.8333,142.5 74.5,142.167 74.5,141.5C 73.8333,141.5 73.5,141.167 73.5,140.5C 72.8333,140.5 72.5,140.167 72.5,139.5C 71.8333,139.5 71.5,139.167 71.5,138.5C 70.8333,138.5 70.5,138.167 70.5,137.5C 69.8333,137.5 69.5,137.167 69.5,136.5C 68.8333,136.5 68.5,136.167 68.5,135.5C 67.5987,134.71 66.9321,133.71 66.5,132.5C 65.8333,132.5 65.5,132.167 65.5,131.5C 64.8333,131.5 64.5,131.167 64.5,130.5C 63.5,129.167 62.5,129.167 61.5,130.5C 61.5,131.167 61.1667,131.5 60.5,131.5C 60.1667,130.167 59.8333,130.167 59.5,131.5C 56.9093,132.991 55.9093,135.325 56.5,138.5C 54.8697,134.24 55.5364,130.24 58.5,126.5C 58.1667,125.833 57.8333,125.167 57.5,124.5C 61.6196,124.439 65.6196,124.439 69.5,124.5 Z"/></g>
<g><path style="opacity:0.004" fill="#000000" d="M 26.5,127.5 C 28.3773,128.829 28.5439,130.162 27,131.5C 25.9701,131.164 25.4701,130.497 25.5,129.5C 26.3382,129.158 26.6716,128.492 26.5,127.5 Z"/></g>
<g><path style="opacity:0.004" fill="#010101" d="M 55.5,152.5 C 56.1667,153.167 56.8333,153.833 57.5,154.5C 57.5,157.167 57.5,159.833 57.5,162.5C 54.1667,162.5 50.8333,162.5 47.5,162.5C 44.1667,161.167 40.8333,161.167 37.5,162.5C 36.8333,162.5 36.5,162.167 36.5,161.5C 34.0521,160.527 31.3854,160.194 28.5,160.5C 25.7564,159.986 23.0897,159.986 20.5,160.5C 20.815,156.629 20.4816,152.962 19.5,149.5C 18.7624,147.24 17.7624,147.073 16.5,149C 16.9662,150.299 16.9662,151.799 16.5,153.5C 15.596,154.209 15.2627,155.209 15.5,156.5C 14.6618,156.842 14.3284,157.508 14.5,158.5C 14.5,162.5 14.5,166.5 14.5,170.5C 14.5,171.167 14.8333,171.5 15.5,171.5C 15.2627,172.791 15.596,173.791 16.5,174.5C 16.5,174.833 16.5,175.167 16.5,175.5C 16.5,176.167 16.5,176.833 16.5,177.5C 16.3284,178.492 16.6618,179.158 17.5,179.5C 17.5,180.167 17.8333,180.5 18.5,180.5C 18.3284,181.492 18.6618,182.158 19.5,182.5C 19.5,182.833 19.5,183.167 19.5,183.5C 19.5,183.833 19.5,184.167 19.5,184.5C 19.8333,184.5 20.1667,184.5 20.5,184.5C 20.5,184.833 20.5,185.167 20.5,185.5C 20.5,186.833 21.1667,187.5 22.5,187.5C 23.1667,187.5 23.5,187.833 23.5,188.5C 22.1667,188.833 22.1667,189.167 23.5,189.5C 22.4538,191.466 21.4538,193.466 20.5,195.5C 18.7484,193.754 17.4151,191.754 16.5,189.5C 16.5,188.833 16.1667,188.5 15.5,188.5C 15.5,188.167 15.5,187.833 15.5,187.5C 15.5,186.833 15.1667,186.5 14.5,186.5C 14.5,185.833 14.1667,185.5 13.5,185.5C 13.5,185.167 13.5,184.833 13.5,184.5C 13.6716,183.508 13.3382,182.842 12.5,182.5C 12.5,182.167 12.5,181.833 12.5,181.5C 12.6716,180.508 12.3382,179.842 11.5,179.5C 11.5,179.167 11.5,178.833 11.5,178.5C 11.7373,177.209 11.404,176.209 10.5,175.5C 10.5,175.167 10.5,174.833 10.5,174.5C 10.8214,168.974 10.4881,163.64 9.5,158.5C 9.5,157.833 9.83333,157.5 10.5,157.5C 11.4345,156.432 11.7678,155.099 11.5,153.5C 11.5,153.167 11.5,152.833 11.5,152.5C 12.3382,152.158 12.6716,151.492 12.5,150.5C 12.5,150.167 12.5,149.833 12.5,149.5C 13.3382,149.158 13.6716,148.492 13.5,147.5C 13.5,147.167 13.5,146.833 13.5,146.5C 15.5195,145.462 15.8528,144.128 14.5,142.5C 14.5,141.833 14.8333,141.5 15.5,141.5C 16.9498,142.658 17.9498,142.158 18.5,140C 17.944,139.617 17.6107,139.117 17.5,138.5C 17.5,138.167 17.5,137.833 17.5,137.5C 18.1499,137.804 18.8165,138.137 19.5,138.5C 21.4597,136.099 22.9597,133.433 24,130.5C 24.065,132.883 24.8983,133.55 26.5,132.5C 27.3473,134.061 27.0139,135.561 25.5,137C 25.9574,137.414 26.2907,137.914 26.5,138.5C 25.7077,141.126 25.0411,143.792 24.5,146.5C 24.8333,148.167 25.8333,149.167 27.5,149.5C 28.3958,152.144 29.2291,154.81 30,157.5C 31.2635,155.393 33.0968,154.393 35.5,154.5C 35.2606,152.533 35.5939,150.699 36.5,149C 38.8324,149.649 41.1657,149.482 43.5,148.5C 45.5352,149.041 47.5352,149.708 49.5,150.5C 51.1667,153.167 52.8333,155.833 54.5,158.5C 54.3163,156.585 54.6497,154.585 55.5,152.5 Z M 17.5,183.5 C 18.1667,183.833 18.8333,184.167 19.5,184.5C 19.6309,185.376 19.2975,186.043 18.5,186.5C 17.6143,185.675 17.281,184.675 17.5,183.5 Z"/></g>
<g><path style="opacity:0.927" fill="#c25754" d="M 247.5,124.5 C 247.5,125.833 248.167,126.5 249.5,126.5C 245.724,134.512 241.39,142.178 236.5,149.5C 236.737,148.209 236.404,147.209 235.5,146.5C 235.881,145.069 236.881,144.236 238.5,144C 238.043,143.586 237.709,143.086 237.5,142.5C 242.195,137.168 245.528,131.168 247.5,124.5 Z"/></g>
<g><path style="opacity:0.004" fill="#000000" d="M 56.5,146.5 C 56.1667,148.5 55.8333,150.5 55.5,152.5C 54.2056,150.32 54.5389,148.32 56.5,146.5 Z"/></g>
<g><path style="opacity:0.004" fill="#000000" d="M 234.5,150.5 C 234.833,150.5 235.167,150.5 235.5,150.5C 235.315,151.17 234.981,151.17 234.5,150.5 Z"/></g>
<g><path style="opacity:0.004" fill="#000000" d="M 233.5,151.5 C 233.833,151.5 234.167,151.5 234.5,151.5C 234.315,152.17 233.981,152.17 233.5,151.5 Z"/></g>
<g><path style="opacity:0.004" fill="#020201" d="M 135.5,152.5 C 137.5,152.5 139.5,152.5 141.5,152.5C 143.607,153.468 145.941,153.802 148.5,153.5C 150.167,154.833 151.833,154.833 153.5,153.5C 154.167,153.5 154.5,153.833 154.5,154.5C 156.5,155.833 158.5,155.833 160.5,154.5C 161.167,154.5 161.5,154.833 161.5,155.5C 162.568,156.434 163.901,156.768 165.5,156.5C 169.329,157.1 172.996,158.434 176.5,160.5C 177.167,160.5 177.5,160.833 177.5,161.5C 177.833,161.5 178.167,161.5 178.5,161.5C 177.152,162.186 175.985,163.186 175,164.5C 173.184,163.671 171.351,162.837 169.5,162C 161.8,160.848 154.3,160.015 147,159.5C 141.318,161.888 135.818,164.555 130.5,167.5C 129.833,167.167 129.167,166.833 128.5,166.5C 121.689,169.825 114.689,172.659 107.5,175C 105.981,176.351 104.648,177.851 103.5,179.5C 103.709,180.086 104.043,180.586 104.5,181C 103.897,182.825 103.23,184.659 102.5,186.5C 100.338,186.846 98.3382,186.846 96.5,186.5C 96.1667,185.833 95.8333,185.167 95.5,184.5C 96.8333,184.167 96.8333,183.833 95.5,183.5C 94.5987,182.71 93.9321,181.71 93.5,180.5C 92.8333,180.5 92.5,180.167 92.5,179.5C 91.8333,179.5 91.5,179.167 91.5,178.5C 91.1667,177.167 90.8333,177.167 90.5,178.5C 89.8333,178.5 89.5,178.167 89.5,177.5C 88.8333,177.5 88.5,177.167 88.5,176.5C 87.8333,176.5 87.5,176.167 87.5,175.5C 87.5,175.167 87.5,174.833 87.5,174.5C 88.4916,174.672 89.1583,174.338 89.5,173.5C 89.8333,173.5 90.1667,173.5 90.5,173.5C 91.4916,173.672 92.1583,173.338 92.5,172.5C 96.1107,170.743 99.7774,169.41 103.5,168.5C 104.492,168.672 105.158,168.338 105.5,167.5C 106.791,167.737 107.791,167.404 108.5,166.5C 109.895,167.815 110.895,167.481 111.5,165.5C 112.791,165.737 113.791,165.404 114.5,164.5C 115.492,164.672 116.158,164.338 116.5,163.5C 117.492,163.672 118.158,163.338 118.5,162.5C 118.833,162.5 119.167,162.5 119.5,162.5C 120.492,162.672 121.158,162.338 121.5,161.5C 122.167,161.5 122.5,161.167 122.5,160.5C 126.095,158.898 129.429,156.898 132.5,154.5C 133.167,154.5 133.5,154.167 133.5,153.5C 133.833,153.5 134.167,153.5 134.5,153.5C 135.167,153.5 135.5,153.167 135.5,152.5 Z"/></g>
<g><path style="opacity:1" fill="#d83b41" d="M 228.5,135.5 C 228.938,135.435 229.272,135.601 229.5,136C 228.809,137.067 228.309,138.234 228,139.5C 225.719,144.701 222.886,149.534 219.5,154C 218.615,156.654 217.782,159.154 217,161.5C 218.294,161.899 219.794,161.899 221.5,161.5C 222.881,159.365 223.881,157.032 224.5,154.5C 226.225,153.985 227.892,153.318 229.5,152.5C 231.236,150.097 233.236,148.097 235.5,146.5C 236.404,147.209 236.737,148.209 236.5,149.5C 236.5,150.167 236.167,150.5 235.5,150.5C 235.167,149.167 234.833,149.167 234.5,150.5C 233.833,150.5 233.5,150.833 233.5,151.5C 232.833,151.5 232.5,151.833 232.5,152.5C 229.41,156.315 226.076,159.981 222.5,163.5C 221.833,163.5 221.5,163.833 221.5,164.5C 220.833,164.5 220.5,164.833 220.5,165.5C 219.833,165.5 219.5,165.833 219.5,166.5C 218.833,166.5 218.5,166.833 218.5,167.5C 217.167,167.833 217.167,168.167 218.5,168.5C 218.5,169.167 218.167,169.5 217.5,169.5C 217.167,169.5 216.833,169.5 216.5,169.5C 213.833,167.5 211.5,165.167 209.5,162.5C 210.167,162.5 210.5,162.167 210.5,161.5C 211.906,161.027 212.573,160.027 212.5,158.5C 213.167,158.5 213.5,158.167 213.5,157.5C 214.338,157.158 214.672,156.492 214.5,155.5C 215.167,155.5 215.5,155.167 215.5,154.5C 216.167,154.5 216.5,154.167 216.5,153.5C 217.167,153.5 217.5,153.167 217.5,152.5C 218.338,152.158 218.672,151.492 218.5,150.5C 219.167,150.5 219.5,150.167 219.5,149.5C 220.167,149.5 220.5,149.167 220.5,148.5C 220.5,148.167 220.5,147.833 220.5,147.5C 221.167,147.5 221.5,147.167 221.5,146.5C 222.338,146.158 222.672,145.492 222.5,144.5C 223.338,144.158 223.672,143.492 223.5,142.5C 224.338,142.158 224.672,141.492 224.5,140.5C 225.906,140.027 226.573,139.027 226.5,137.5C 227.167,136.833 227.833,136.167 228.5,135.5 Z"/></g>
<g><path style="opacity:0.004" fill="#141310" d="M 232.5,152.5 C 232.833,152.5 233.167,152.5 233.5,152.5C 233.477,154.927 232.977,157.26 232,159.5C 231.026,157.122 230.359,157.456 230,160.5C 229.667,160.167 229.333,159.833 229,159.5C 227,162.167 224.667,164.5 222,166.5C 222,167.833 222,169.167 222,170.5C 221.667,170.167 221.333,169.833 221,169.5C 218.825,172.376 216.325,174.876 213.5,177C 212.563,177.692 211.897,177.525 211.5,176.5C 212.167,176.5 212.5,176.167 212.5,175.5C 213.167,175.5 213.5,175.167 213.5,174.5C 214.167,174.5 214.5,174.167 214.5,173.5C 215.167,172.5 215.833,171.5 216.5,170.5C 217.206,171.557 217.539,171.224 217.5,169.5C 218.167,169.5 218.5,169.167 218.5,168.5C 218.5,168.167 218.5,167.833 218.5,167.5C 219.167,167.5 219.5,167.167 219.5,166.5C 220.167,166.5 220.5,166.167 220.5,165.5C 221.167,165.5 221.5,165.167 221.5,164.5C 222.167,164.5 222.5,164.167 222.5,163.5C 226.076,159.981 229.41,156.315 232.5,152.5 Z"/></g>
<g><path style="opacity:0.527" fill="#a15767" d="M 215.5,151.5 C 214.833,151.5 214.5,151.833 214.5,152.5C 213.833,152.5 213.5,152.833 213.5,153.5C 212.167,153.833 212.167,154.167 213.5,154.5C 213.5,154.833 213.5,155.167 213.5,155.5C 211.086,156.911 209.419,158.911 208.5,161.5C 206.413,160.415 205.08,158.749 204.5,156.5C 205.74,155.341 207.074,154.341 208.5,153.5C 209.167,153.5 209.5,153.167 209.5,152.5C 210.167,152.5 210.5,152.167 210.5,151.5C 211.167,151.5 211.5,151.167 211.5,150.5C 212.167,150.5 212.5,150.167 212.5,149.5C 213.738,149.19 213.738,148.69 212.5,148C 213.793,147.51 215.127,147.343 216.5,147.5C 216.567,148.959 216.234,150.292 215.5,151.5 Z"/></g>
<g><path style="opacity:0.004" fill="#000000" d="M 234.5,154.5 C 235.833,155.167 235.833,155.167 234.5,154.5 Z"/></g>
<g><path style="opacity:0.005" fill="#1e161a" d="M 213.5,155.5 C 213.5,156.167 213.5,156.833 213.5,157.5C 212.833,157.5 212.5,157.833 212.5,158.5C 212.573,160.027 211.906,161.027 210.5,161.5C 209.833,161.5 209.5,161.833 209.5,162.5C 208.833,162.5 208.5,162.167 208.5,161.5C 209.419,158.911 211.086,156.911 213.5,155.5 Z"/></g>
<g><path style="opacity:0.004" fill="#000000" d="M 182.5,163.5 C 182.842,164.338 183.508,164.672 184.5,164.5C 184.842,165.338 185.508,165.672 186.5,165.5C 186.842,166.338 187.508,166.672 188.5,166.5C 188.833,166.5 189.167,166.5 189.5,166.5C 189.5,167.167 189.5,167.833 189.5,168.5C 187.246,169.124 185.579,170.457 184.5,172.5C 183.833,172.5 183.5,172.833 183.5,173.5C 183.5,174.167 183.167,174.5 182.5,174.5C 182.167,173.167 181.833,173.167 181.5,174.5C 181.5,175.167 181.167,175.5 180.5,175.5C 180.167,174.167 179.833,174.167 179.5,175.5C 178.508,175.328 177.842,175.662 177.5,176.5C 176.508,176.328 175.842,176.662 175.5,177.5C 174.508,177.328 173.842,177.662 173.5,178.5C 172.508,178.328 171.842,178.662 171.5,179.5C 170.508,179.328 169.842,179.662 169.5,180.5C 168.508,180.328 167.842,180.662 167.5,181.5C 164.768,182.866 162.101,184.199 159.5,185.5C 158.833,185.5 158.5,185.833 158.5,186.5C 158.167,186.5 157.833,186.5 157.5,186.5C 156.508,186.328 155.842,186.662 155.5,187.5C 154.209,187.263 153.209,187.596 152.5,188.5C 151.209,188.263 150.209,188.596 149.5,189.5C 148.209,189.263 147.209,189.596 146.5,190.5C 145.209,190.263 144.209,190.596 143.5,191.5C 142.209,191.263 141.209,191.596 140.5,192.5C 140.167,192.5 139.833,192.5 139.5,192.5C 138.209,192.263 137.209,192.596 136.5,193.5C 131.828,195.165 127.161,196.498 122.5,197.5C 121.167,197.5 119.833,197.5 118.5,197.5C 117.833,198.167 117.167,198.833 116.5,199.5C 114.5,198.167 112.5,198.167 110.5,199.5C 106.958,199.187 103.625,199.521 100.5,200.5C 92.5,200.5 84.5,200.5 76.5,200.5C 74.0521,199.527 71.3854,199.194 68.5,199.5C 65.4115,198.215 62.0781,197.549 58.5,197.5C 54.9143,196.191 51.2477,194.858 47.5,193.5C 47.5,192.833 47.1667,192.5 46.5,192.5C 46.1667,192.5 45.8333,192.5 45.5,192.5C 45.1583,191.662 44.4916,191.328 43.5,191.5C 43.1583,190.662 42.4916,190.328 41.5,190.5C 41.5,189.833 41.1667,189.5 40.5,189.5C 40.1583,188.662 39.4916,188.328 38.5,188.5C 38.5,187.833 38.1667,187.5 37.5,187.5C 37.1583,186.662 36.4916,186.328 35.5,186.5C 35.5,185.833 35.1667,185.5 34.5,185.5C 34.5,184.833 34.1667,184.5 33.5,184.5C 31.1402,183.135 29.4735,181.135 28.5,178.5C 28.5,177.833 28.1667,177.5 27.5,177.5C 27.5,176.833 27.1667,176.5 26.5,176.5C 26.6716,175.508 26.3382,174.842 25.5,174.5C 25.5,173.833 25.1667,173.5 24.5,173.5C 23.8333,173.5 23.5,173.167 23.5,172.5C 24.8333,172.167 24.8333,171.833 23.5,171.5C 23.5,171.167 23.5,170.833 23.5,170.5C 23.6716,169.508 23.3382,168.842 22.5,168.5C 22.5,167.833 22.8333,167.5 23.5,167.5C 24.5,167.5 25.5,167.5 26.5,167.5C 27.1667,167.5 27.5,167.833 27.5,168.5C 29.0276,169.309 30.6943,169.976 32.5,170.5C 33.1667,170.5 33.5,170.833 33.5,171.5C 34.8333,172.167 36.1667,172.833 37.5,173.5C 39.1825,180.432 41.3492,180.765 44,174.5C 45.2051,175.071 46.3717,175.738 47.5,176.5C 45.0087,177.541 45.0087,178.374 47.5,179C 45.0481,180.806 45.3814,182.306 48.5,183.5C 51.7755,181.215 51.7755,179.882 48.5,179.5C 48.2591,176.966 49.2591,175.3 51.5,174.5C 51.3284,175.492 51.6618,176.158 52.5,176.5C 53.1667,176.5 53.5,176.833 53.5,177.5C 54.1667,177.5 54.5,177.833 54.5,178.5C 58.2984,179.483 62.2984,179.817 66.5,179.5C 67.209,180.404 68.209,180.737 69.5,180.5C 70.1667,180.5 70.8333,180.5 71.5,180.5C 72.1667,180.5 72.5,180.833 72.5,181.5C 74.2504,182.87 76.2504,183.87 78.5,184.5C 78.8333,185.833 79.1667,185.833 79.5,184.5C 80.1667,184.5 80.5,184.833 80.5,185.5C 80.8417,186.338 81.5084,186.672 82.5,186.5C 83.209,187.404 84.209,187.737 85.5,187.5C 85.8417,188.338 86.5084,188.672 87.5,188.5C 87.8333,188.5 88.1667,188.5 88.5,188.5C 90.1897,189.103 91.6897,190.103 93,191.5C 97.1978,185.881 98.6978,186.214 97.5,192.5C 96.325,192.281 95.325,192.614 94.5,193.5C 98.8836,194.979 101.384,193.313 102,188.5C 102.893,187.919 103.893,187.585 105,187.5C 112.713,189.98 120.547,191.313 128.5,191.5C 130.002,190.917 131.335,190.084 132.5,189C 148.244,186.635 162.578,180.635 175.5,171C 178.352,169.409 181.352,168.076 184.5,167C 182.884,166.385 181.551,165.385 180.5,164C 181.094,163.536 181.761,163.369 182.5,163.5 Z M 33.5,171.5 C 39.7671,171.656 45.7671,172.656 51.5,174.5C 49.2591,175.3 48.2591,176.966 48.5,179.5C 51.7755,179.882 51.7755,181.215 48.5,183.5C 45.3814,182.306 45.0481,180.806 47.5,179C 45.0087,178.374 45.0087,177.541 47.5,176.5C 46.3717,175.738 45.2051,175.071 44,174.5C 41.3492,180.765 39.1825,180.432 37.5,173.5C 36.1667,172.833 34.8333,172.167 33.5,171.5 Z M 103.5,189.5 C 106.001,189.511 106.168,190.178 104,191.5C 103.536,190.906 103.369,190.239 103.5,189.5 Z"/></g>
<g><path style="opacity:0.004" fill="#000000" d="M 223.5,167.5 C 224.833,168.167 224.833,168.167 223.5,167.5 Z"/></g>
<g><path style="opacity:0.004" fill="#070707" d="M 196.5,171.5 C 197.492,171.328 198.158,171.662 198.5,172.5C 198.5,172.833 198.5,173.167 198.5,173.5C 198.167,173.5 197.833,173.5 197.5,173.5C 196.833,173.5 196.5,173.833 196.5,174.5C 195.833,174.5 195.5,174.833 195.5,175.5C 194.833,175.5 194.5,175.833 194.5,176.5C 193.5,176.167 192.833,175.5 192.5,174.5C 193.167,174.5 193.5,174.167 193.5,173.5C 193.973,172.094 194.973,171.427 196.5,171.5 Z"/></g>
<g><path style="opacity:0.004" fill="#272120" d="M 189.5,176.5 C 190.239,176.369 190.906,176.536 191.5,177C 190.748,177.671 190.414,178.504 190.5,179.5C 189.833,179.5 189.5,179.833 189.5,180.5C 188.135,182.86 186.135,184.527 183.5,185.5C 183.389,184.883 183.056,184.383 182.5,184C 183.833,183 185.167,182 186.5,181C 185.944,180.617 185.611,180.117 185.5,179.5C 186.167,179.5 186.5,179.167 186.5,178.5C 187.925,180.031 188.591,179.698 188.5,177.5C 189.167,177.5 189.5,177.167 189.5,176.5 Z"/></g>
<g><path style="opacity:0.004" fill="#000000" d="M 110.5,181.5 C 112.308,181.491 113.975,181.991 115.5,183C 114.667,183.167 113.833,183.333 113,183.5C 111.624,183.316 110.791,182.649 110.5,181.5 Z"/></g>
<g><path style="opacity:0.004" fill="#000000" d="M 199.5,183.5 C 199.833,183.5 200.167,183.5 200.5,183.5C 200.315,184.17 199.981,184.17 199.5,183.5 Z"/></g>
<g><path style="opacity:0.004" fill="#000000" d="M 192.5,187.5 C 193.833,188.167 193.833,188.167 192.5,187.5 Z"/></g>
<g><path style="opacity:0.888" fill="#48466b" d="M 12.5,182.5 C 12.3284,183.492 12.6618,184.158 13.5,184.5C 13.5,184.833 13.5,185.167 13.5,185.5C 14.1667,185.5 14.5,185.833 14.5,186.5C 15.1667,186.5 15.5,186.833 15.5,187.5C 15.5,187.833 15.5,188.167 15.5,188.5C 16.1667,188.5 16.5,188.833 16.5,189.5C 17.4151,191.754 18.7484,193.754 20.5,195.5C 21.3498,198.261 20.3498,198.928 17.5,197.5C 17.1667,196.167 16.8333,196.167 16.5,197.5C 13.5865,196.094 11.0865,194.094 9,191.5C 8.30831,190.563 8.47498,189.897 9.5,189.5C 10.1667,189.5 10.5,189.833 10.5,190.5C 10.8333,191.833 11.1667,191.833 11.5,190.5C 10.722,188.775 10.3886,187.109 10.5,185.5C 10.9424,184.261 11.6091,183.261 12.5,182.5 Z"/></g>
<g><path style="opacity:0.004" fill="#000000" d="M 191.5,188.5 C 191.833,188.5 192.167,188.5 192.5,188.5C 192.315,189.17 191.981,189.17 191.5,188.5 Z"/></g>
<g><path style="opacity:1" fill="#c44245" d="M 199.5,172.5 C 203.543,173.589 207.543,174.589 211.5,175.5C 211.5,175.833 211.5,176.167 211.5,176.5C 208.402,176.413 208.068,176.913 210.5,178C 206.669,179.079 203.336,180.912 200.5,183.5C 200.167,182.167 199.833,182.167 199.5,183.5C 196.833,183.833 196.833,184.167 199.5,184.5C 197.025,185.131 194.691,186.131 192.5,187.5C 191.833,187.5 191.5,187.833 191.5,188.5C 182.234,194.3 172.567,199.3 162.5,203.5C 161.5,204.167 160.5,204.833 159.5,205.5C 159.5,204.833 159.167,204.5 158.5,204.5C 156.952,204.179 156.285,203.179 156.5,201.5C 157.167,201.5 157.5,201.167 157.5,200.5C 158.167,200.5 158.5,200.167 158.5,199.5C 158.833,199.5 159.167,199.5 159.5,199.5C 160.492,199.672 161.158,199.338 161.5,198.5C 161.833,198.5 162.167,198.5 162.5,198.5C 163.167,198.5 163.5,198.167 163.5,197.5C 163.5,197.167 163.5,196.833 163.5,196.5C 170.092,193.521 176.759,189.854 183.5,185.5C 186.135,184.527 188.135,182.86 189.5,180.5C 190.167,180.5 190.5,180.167 190.5,179.5C 192.23,178.974 193.564,177.974 194.5,176.5C 195.167,176.5 195.5,176.167 195.5,175.5C 196.167,175.5 196.5,175.167 196.5,174.5C 197.167,174.5 197.5,174.167 197.5,173.5C 197.833,173.5 198.167,173.5 198.5,173.5C 199.167,173.5 199.5,173.167 199.5,172.5 Z"/></g>
<g><path style="opacity:0.004" fill="#000000" d="M 25.5,191.5 C 25.631,192.239 25.4643,192.906 25,193.5C 24.3083,192.563 24.475,191.897 25.5,191.5 Z"/></g>
<g><path style="opacity:0.997" fill="#d13f44" d="M 190.5,167.5 C 193.513,167.581 195.513,168.914 196.5,171.5C 194.973,171.427 193.973,172.094 193.5,173.5C 192.833,173.5 192.5,173.833 192.5,174.5C 191.29,174.932 190.29,175.599 189.5,176.5C 188.833,176.5 188.5,176.833 188.5,177.5C 187.508,177.328 186.842,177.662 186.5,178.5C 185.833,178.5 185.5,178.833 185.5,179.5C 174.018,186.55 162.684,192.883 151.5,198.5C 148.402,199.216 145.402,200.216 142.5,201.5C 142.539,200.417 142.873,199.417 143.5,198.5C 145.396,197.534 147.396,197.201 149.5,197.5C 149.5,196.5 149.5,195.5 149.5,194.5C 133.586,199.01 117.253,201.343 100.5,201.5C 100.5,201.167 100.5,200.833 100.5,200.5C 104.042,200.813 107.375,200.479 110.5,199.5C 112.5,199.5 114.5,199.5 116.5,199.5C 117.167,198.833 117.833,198.167 118.5,197.5C 119.833,198.833 121.167,198.833 122.5,197.5C 127.161,196.498 131.828,195.165 136.5,193.5C 137.791,193.737 138.791,193.404 139.5,192.5C 139.833,192.5 140.167,192.5 140.5,192.5C 141.791,192.737 142.791,192.404 143.5,191.5C 144.791,191.737 145.791,191.404 146.5,190.5C 147.791,190.737 148.791,190.404 149.5,189.5C 150.791,189.737 151.791,189.404 152.5,188.5C 153.791,188.737 154.791,188.404 155.5,187.5C 156.492,187.672 157.158,187.338 157.5,186.5C 157.833,186.5 158.167,186.5 158.5,186.5C 159.167,186.5 159.5,186.167 159.5,185.5C 162.101,184.199 164.768,182.866 167.5,181.5C 168.492,181.672 169.158,181.338 169.5,180.5C 170.492,180.672 171.158,180.338 171.5,179.5C 172.492,179.672 173.158,179.338 173.5,178.5C 174.492,178.672 175.158,178.338 175.5,177.5C 176.492,177.672 177.158,177.338 177.5,176.5C 178.492,176.672 179.158,176.338 179.5,175.5C 179.833,175.5 180.167,175.5 180.5,175.5C 181.167,175.5 181.5,175.167 181.5,174.5C 181.833,174.5 182.167,174.5 182.5,174.5C 183.167,174.5 183.5,174.167 183.5,173.5C 184.167,173.5 184.5,173.167 184.5,172.5C 185.579,170.457 187.246,169.124 189.5,168.5C 190.167,168.5 190.5,168.167 190.5,167.5 Z"/></g>
<g><path style="opacity:0.004" fill="#020501" d="M 163.5,196.5 C 163.5,196.833 163.5,197.167 163.5,197.5C 162.833,197.5 162.5,197.833 162.5,198.5C 162.167,198.5 161.833,198.5 161.5,198.5C 160.508,198.328 159.842,198.662 159.5,199.5C 159.167,199.5 158.833,199.5 158.5,199.5C 157.833,199.5 157.5,199.833 157.5,200.5C 156.209,200.263 155.209,200.596 154.5,201.5C 153.508,201.328 152.842,201.662 152.5,202.5C 151.508,202.328 150.842,202.662 150.5,203.5C 149.508,203.328 148.842,203.662 148.5,204.5C 148.167,204.5 147.833,204.5 147.5,204.5C 146.833,204.5 146.5,204.833 146.5,205.5C 143.543,206.655 140.543,207.655 137.5,208.5C 136.316,207.312 136.316,206.145 137.5,205C 142.895,204.264 147.561,202.097 151.5,198.5C 152.822,198.33 153.989,198.663 155,199.5C 155.324,197.431 156.158,197.098 157.5,198.5C 159.179,196.896 161.179,196.229 163.5,196.5 Z"/></g>
<g><path style="opacity:0.004" fill="#000000" d="M 16.5,197.5 C 16.8333,197.5 17.1667,197.5 17.5,197.5C 17.3147,198.17 16.9813,198.17 16.5,197.5 Z"/></g>
<g><path style="opacity:0.004" fill="#000000" d="M 34.5,199.5 C 33.8333,200.167 33.8333,200.167 34.5,199.5 Z"/></g>
<g><path style="opacity:0.004" fill="#000000" d="M 36.5,200.5 C 36.5,200.833 36.5,201.167 36.5,201.5C 35.8299,201.019 35.8299,200.685 36.5,200.5 Z"/></g>
<g><path style="opacity:1" fill="#dd3b40" d="M 19.5,149.5 C 19.185,153.371 19.5184,157.038 20.5,160.5C 18.8617,162.955 19.195,164.955 21.5,166.5C 21.3284,167.492 21.6618,168.158 22.5,168.5C 22.3284,169.492 22.6618,170.158 23.5,170.5C 23.5,170.833 23.5,171.167 23.5,171.5C 23.5,171.833 23.5,172.167 23.5,172.5C 23.5,173.167 23.8333,173.5 24.5,173.5C 25.1667,173.5 25.5,173.833 25.5,174.5C 25.3284,175.492 25.6618,176.158 26.5,176.5C 27.1667,176.5 27.5,176.833 27.5,177.5C 28.1667,177.5 28.5,177.833 28.5,178.5C 29.4735,181.135 31.1402,183.135 33.5,184.5C 34.1667,184.5 34.5,184.833 34.5,185.5C 35.1667,185.5 35.5,185.833 35.5,186.5C 35.8417,187.338 36.5084,187.672 37.5,187.5C 38.1667,187.5 38.5,187.833 38.5,188.5C 38.8417,189.338 39.5084,189.672 40.5,189.5C 41.1667,189.5 41.5,189.833 41.5,190.5C 41.8417,191.338 42.5084,191.672 43.5,191.5C 43.8417,192.338 44.5084,192.672 45.5,192.5C 45.8333,192.5 46.1667,192.5 46.5,192.5C 47.1667,192.5 47.5,192.833 47.5,193.5C 51.2477,194.858 54.9143,196.191 58.5,197.5C 61.5443,199.011 64.8776,199.678 68.5,199.5C 70.9479,200.473 73.6146,200.806 76.5,200.5C 84.3159,201.492 92.3159,201.826 100.5,201.5C 117.253,201.343 133.586,199.01 149.5,194.5C 149.5,195.5 149.5,196.5 149.5,197.5C 147.396,197.201 145.396,197.534 143.5,198.5C 142.873,199.417 142.539,200.417 142.5,201.5C 111.416,213.263 79.7497,215.096 47.5,207C 46.4158,204.175 45.2492,204.008 44,206.5C 42.3894,203.438 39.8894,201.438 36.5,200.5C 36.1583,199.662 35.4916,199.328 34.5,199.5C 33.3117,198.636 32.1451,197.636 31,196.5C 30.6667,196.833 30.3333,197.167 30,197.5C 27.5294,195.63 26.0294,193.63 25.5,191.5C 25.1667,190.5 24.5,189.833 23.5,189.5C 23.5,189.167 23.5,188.833 23.5,188.5C 23.5,187.833 23.1667,187.5 22.5,187.5C 22.1667,186.5 21.5,185.833 20.5,185.5C 20.5,185.167 20.5,184.833 20.5,184.5C 20.5,183.833 20.1667,183.5 19.5,183.5C 19.5,183.167 19.5,182.833 19.5,182.5C 19.6716,181.508 19.3382,180.842 18.5,180.5C 18.5393,178.776 18.206,178.443 17.5,179.5C 16.6618,179.158 16.3284,178.492 16.5,177.5C 17.8333,176.833 17.8333,176.167 16.5,175.5C 16.5,175.167 16.5,174.833 16.5,174.5C 16.7373,173.209 16.404,172.209 15.5,171.5C 14.8333,171.5 14.5,171.167 14.5,170.5C 15.8333,166.5 15.8333,162.5 14.5,158.5C 14.3284,157.508 14.6618,156.842 15.5,156.5C 16.404,155.791 16.7373,154.791 16.5,153.5C 16.9662,151.799 16.9662,150.299 16.5,149C 17.7624,147.073 18.7624,147.24 19.5,149.5 Z M 58.5,197.5 C 62.0781,197.549 65.4115,198.215 68.5,199.5C 64.8776,199.678 61.5443,199.011 58.5,197.5 Z"/></g>
<g><path style="opacity:0.004" fill="#000000" d="M 36.5,201.5 C 37.8333,202.167 37.8333,202.167 36.5,201.5 Z"/></g>
<g><path style="opacity:0.004" fill="#000000" d="M 162.5,203.5 C 163.833,204.167 163.833,204.167 162.5,203.5 Z"/></g>
<g><path style="opacity:0.094" fill="#a87d81" d="M 154.5,201.5 C 155.167,201.5 155.833,201.5 156.5,201.5C 156.285,203.179 156.952,204.179 158.5,204.5C 159.167,204.5 159.5,204.833 159.5,205.5C 158.312,206.364 157.145,207.364 156,208.5C 155.667,208.167 155.333,207.833 155,207.5C 152.111,209.518 148.945,210.851 145.5,211.5C 143.917,212.627 141.917,212.627 139.5,211.5C 139.719,212.675 139.386,213.675 138.5,214.5C 138.167,213.833 137.833,213.167 137.5,212.5C 135.618,213.093 133.785,213.76 132,214.5C 130.318,213.135 130.151,211.635 131.5,210C 133.345,208.872 135.345,208.372 137.5,208.5C 140.543,207.655 143.543,206.655 146.5,205.5C 147.167,205.5 147.5,205.167 147.5,204.5C 147.833,204.5 148.167,204.5 148.5,204.5C 149.492,204.672 150.158,204.338 150.5,203.5C 151.492,203.672 152.158,203.338 152.5,202.5C 153.492,202.672 154.158,202.338 154.5,201.5 Z"/></g>
<g><path style="opacity:0.004" fill="#000000" d="M 145.5,211.5 C 144.833,212.167 144.833,212.167 145.5,211.5 Z"/></g>
<g><path style="opacity:0.004" fill="#000000" d="M 133.5,215.5 C 133.897,214.475 134.563,214.308 135.5,215C 134.906,215.464 134.239,215.631 133.5,215.5 Z"/></g>
</svg>
