<?xml version="1.0" encoding="UTF-8"?>
<!DOCTYPE svg PUBLIC "-//W3C//DTD SVG 1.1//EN" "http://www.w3.org/Graphics/SVG/1.1/DTD/svg11.dtd">
<svg xmlns="http://www.w3.org/2000/svg" version="1.1" width="48px" height="48px" style="shape-rendering:geometricPrecision; text-rendering:geometricPrecision; image-rendering:optimizeQuality; fill-rule:evenodd; clip-rule:evenodd" xmlns:xlink="http://www.w3.org/1999/xlink">
<g><path style="opacity:0.995" fill="#578e7d" d="M 23.5,0.5 C 23.5,8.16667 23.5,15.8333 23.5,23.5C 15.8333,23.5 8.16667,23.5 0.5,23.5C 0.333711,16.4921 0.500377,9.49207 1,2.5C 1.5,2 2,1.5 2.5,1C 9.49207,0.500377 16.4921,0.333711 23.5,0.5 Z"/></g>
<g><path style="opacity:0.995" fill="#3c3d3c" d="M 23.5,0.5 C 30.5079,0.333711 37.5079,0.500377 44.5,1C 45,1.5 45.5,2 46,2.5C 46.4996,9.49207 46.6663,16.4921 46.5,23.5C 38.8333,23.5 31.1667,23.5 23.5,23.5C 23.5,15.8333 23.5,8.16667 23.5,0.5 Z"/></g>
<g><path style="opacity:0.995" fill="#3c3d3c" d="M 0.5,23.5 C 8.16667,23.5 15.8333,23.5 23.5,23.5C 23.5,31.1667 23.5,38.8333 23.5,46.5C 16.4921,46.6663 9.49207,46.4996 2.5,46C 2,45.5 1.5,45 1,44.5C 0.500377,37.5079 0.333711,30.5079 0.5,23.5 Z"/></g>
<g><path style="opacity:0.995" fill="#578e7d" d="M 23.5,23.5 C 31.1667,23.5 38.8333,23.5 46.5,23.5C 46.6663,30.5079 46.4996,37.5079 46,44.5C 45.5,45 45,45.5 44.5,46C 37.5079,46.4996 30.5079,46.6663 23.5,46.5C 23.5,38.8333 23.5,31.1667 23.5,23.5 Z"/></g>
</svg>
