<?xml version="1.0" encoding="UTF-8"?>
<svg version="1.1" xmlns="http://www.w3.org/2000/svg" width="48" height="48">
<path d="M0 0 C1.21236328 0.02707031 1.21236328 0.02707031 2.44921875 0.0546875 C3.37154297 0.08949219 3.37154297 0.08949219 4.3125 0.125 C4.1475 0.723125 3.9825 1.32125 3.8125 1.9375 C3.08748866 5.10942461 3.27944502 7.02583506 4.3125 10.125 C4.9725 10.125 5.6325 10.125 6.3125 10.125 C7.69482443 11.75126404 9.03187515 13.4175002 10.3125 15.125 C10.9621875 13.7328125 10.9621875 13.7328125 11.625 12.3125 C13.03288627 9.65315927 14.07373556 8.04394095 16.3125 6.125 C15.6525 4.145 14.9925 2.165 14.3125 0.125 C15.77073212 0.0979957 17.22910675 0.07860213 18.6875 0.0625 C19.49960937 0.05089844 20.31171875 0.03929687 21.1484375 0.02734375 C23.3125 0.125 23.3125 0.125 25.3125 1.125 C25.8075 2.61 25.8075 2.61 26.3125 4.125 C27.240625 4.5890625 27.240625 4.5890625 28.1875 5.0625 C30.87764695 6.40757347 31.87940429 7.47377294 33.3125 10.125 C33.95582604 16.23659737 33.95582604 16.23659737 32 18.9375 C28.41157147 21.46269045 25.93978907 22.53932886 21.625 23.25 C20.63113281 23.41757812 19.63726562 23.58515625 18.61328125 23.7578125 C17.85402344 23.87898438 17.09476563 24.00015625 16.3125 24.125 C16.10243822 27.29112386 16.10243822 27.29112386 17.875 30.5 C19.32704479 34.16167817 19.52582587 35.48502238 18.3125 39.125 C15.77339803 38.73979436 14.58498877 38.42402057 12.828125 36.49609375 C11.65625 34.70572917 10.484375 32.91536458 9.3125 31.125 C7.6625 33.435 6.0125 35.745 4.3125 38.125 C2.9925 37.795 1.6725 37.465 0.3125 37.125 C0.97748383 32.73610675 2.50007677 29.1438515 4.3125 25.125 C1.80547901 24.60924434 -0.69324958 24.12410523 -3.22265625 23.73046875 C-7.04662286 23.09806623 -10.02527871 22.55071369 -13.3125 20.4375 C-15.31260407 17.07368861 -15.2943783 14.96856257 -14.6875 11.125 C-12.3125 8.3125 -12.3125 8.3125 -9.6875 6.125 C-9.0275 5.465 -8.3675 4.805 -7.6875 4.125 C-7.6875 3.465 -7.6875 2.805 -7.6875 2.125 C-4.48369983 -0.01086678 -3.66810033 -0.10632175 0 0 Z M22.3125 7.125 C21.25354104 8.76770642 20.24002526 10.43985062 19.25 12.125 C18.70214844 13.053125 18.15429688 13.98125 17.58984375 14.9375 C17.16832031 15.659375 16.74679688 16.38125 16.3125 17.125 C19.52451784 18.73100892 22.02137021 17.18286315 25.3125 16.125 C25.9725 15.795 26.6325 15.465 27.3125 15.125 C26.9825 13.475 26.6525 11.825 26.3125 10.125 C25.6525 10.125 24.9925 10.125 24.3125 10.125 C23.9825 9.135 23.6525 8.145 23.3125 7.125 C22.9825 7.125 22.6525 7.125 22.3125 7.125 Z M-4.6875 8.125 C-6.35596734 9.81995956 -6.35596734 9.81995956 -7.6875 12.125 C-7.46552187 14.8234589 -7.46552187 14.8234589 -6.6875 17.125 C-4.0475 17.455 -1.4075 17.785 1.3125 18.125 C0.10407144 13.69409529 -1.20418565 11.14387244 -4.6875 8.125 Z " fill="#FFFFFF" transform="translate(14.6875,5.875)"/>
</svg>
